<?xml version="1.0" encoding="UTF-8" standalone="no"?>
<!-- Created with Inkscape (http://www.inkscape.org/) -->

<svg
   xmlns:dc="http://purl.org/dc/elements/1.1/"
   xmlns:cc="http://creativecommons.org/ns#"
   xmlns:rdf="http://www.w3.org/1999/02/22-rdf-syntax-ns#"
   xmlns:svg="http://www.w3.org/2000/svg"
   xmlns="http://www.w3.org/2000/svg"
   xmlns:sodipodi="http://sodipodi.sourceforge.net/DTD/sodipodi-0.dtd"
   xmlns:inkscape="http://www.inkscape.org/namespaces/inkscape"
   width="183.55592mm"
   height="292.42172mm"
   viewBox="0 0 650.395 1036.14"
   id="svg2"
   version="1.1"
   inkscape:version="0.91 r13725"
   sodipodi:docname="Brain Buste.svg">
  <title
     id="title3349">Brain Buste</title>
  <defs
     id="defs4" />
  <sodipodi:namedview
     id="base"
     pagecolor="#ffffff"
     bordercolor="#666666"
     borderopacity="1.0"
     inkscape:pageopacity="0.0"
     inkscape:pageshadow="2"
     inkscape:zoom="0.70710678"
     inkscape:cx="11.420755"
     inkscape:cy="590.87324"
     inkscape:document-units="px"
     inkscape:current-layer="layer2"
     showgrid="false"
     fit-margin-top="0"
     fit-margin-left="0"
     fit-margin-right="0"
     fit-margin-bottom="0"
     inkscape:window-width="1366"
     inkscape:window-height="744"
     inkscape:window-x="0"
     inkscape:window-y="24"
     inkscape:window-maximized="1" />
  <metadata
     id="metadata7">
    <rdf:RDF>
      <cc:Work
         rdf:about="">
        <dc:format>image/svg+xml</dc:format>
        <dc:type
           rdf:resource="http://purl.org/dc/dcmitype/StillImage" />
        <dc:title>Brain Buste</dc:title>
        <dc:date>2019</dc:date>
        <dc:creator>
          <cc:Agent>
            <dc:title>Doodleguy</dc:title>
          </cc:Agent>
        </dc:creator>
        <dc:rights>
          <cc:Agent>
            <dc:title>Public Domain</dc:title>
          </cc:Agent>
        </dc:rights>
        <cc:license
           rdf:resource="http://creativecommons.org/publicdomain/zero/1.0/" />
      </cc:Work>
      <cc:License
         rdf:about="http://creativecommons.org/publicdomain/zero/1.0/">
        <cc:permits
           rdf:resource="http://creativecommons.org/ns#Reproduction" />
        <cc:permits
           rdf:resource="http://creativecommons.org/ns#Distribution" />
        <cc:permits
           rdf:resource="http://creativecommons.org/ns#DerivativeWorks" />
      </cc:License>
    </rdf:RDF>
  </metadata>
  <g
     inkscape:groupmode="layer"
     id="layer2"
     inkscape:label="bund">
    <path
       style="color:#000000;clip-rule:nonzero;display:inline;overflow:visible;visibility:visible;opacity:1;isolation:auto;mix-blend-mode:normal;color-interpolation:sRGB;color-interpolation-filters:linearRGB;solid-color:#000000;solid-opacity:1;fill:#ffffff;fill-opacity:1;fill-rule:evenodd;stroke:none;stroke-width:0.99999988px;stroke-linecap:round;stroke-linejoin:round;stroke-miterlimit:4;stroke-dasharray:none;stroke-dashoffset:0;stroke-opacity:1;color-rendering:auto;image-rendering:auto;shape-rendering:auto;text-rendering:auto;enable-background:accumulate"
       d="m 357.15464,6.9271691 c -2.66686,0.064921 -5.55265,0.1258731 -7.87924,1.5924207 -1.28987,0.8278059 -1.69447,2.4916022 -1.36651,3.9237122 0.73938,5.940001 0.94395,11.929643 1.30141,17.902834 0.47626,8.722127 0.72308,17.452766 1.02772,26.181127 0.009,2.443268 1.8488,4.331922 3.42425,5.98789 2.76713,2.676136 6.09577,5.193463 10.06256,5.538576 5.39626,0.460464 10.82291,0.258694 16.23273,0.318971 11.06839,0.02688 22.17802,-0.06802 33.15842,1.441442 3.7365,0.44751 7.48481,0.942965 11.25771,0.762502 4.24009,-0.04379 8.38457,-1.072921 12.52292,-1.888115 2.74025,-0.604525 5.77442,-1.383112 7.48061,-3.815449 1.84234,-2.665182 2.03748,-6.047301 2.37817,-9.16788 0.29576,-5.033969 0.16757,-10.084087 0.21356,-15.124858 -0.0378,-9.475436 0.008,-18.968326 -0.74307,-28.420159 -0.0637,-0.578891 -0.0657,-1.493927 -0.85626,-1.519174 C 439.85211,10.058754 434.2888,10.085216 428.74652,9.960171 409.07012,9.71885 389.36067,9.5180333 369.76796,7.551402 365.57343,7.1963932 361.36629,6.9101734 357.15464,6.9271691 Z m 59.68039,13.9850399 c 3.13336,0.07731 6.16404,1.429488 8.75259,3.178543 3.61788,2.503482 5.40418,6.954584 5.5248,11.22751 0.2729,3.702131 -0.52525,7.389924 -0.23057,11.101278 0.10437,2.232914 1.70823,3.953666 3.20929,5.437043 1.12708,1.275715 2.53013,2.437652 3.19134,4.045968 0.19114,0.857685 -0.96489,1.060842 -1.58971,1.065889 -2.77201,-0.08568 -5.34843,-1.54141 -7.41902,-3.322883 -1.39371,-1.100811 -3.15378,-1.75273 -4.94154,-1.550808 -3.4789,0.242106 -6.83483,1.479259 -10.35411,1.196417 -3.12423,0.02029 -6.40998,-1.160952 -8.36947,-3.716619 -1.91306,-2.564226 -2.54557,-5.849241 -2.47736,-8.99344 -0.1201,-3.930336 0.46485,-7.829172 0.68296,-11.753653 -0.41377,-0.438727 -1.22551,-0.289866 -1.80255,-0.479151 -4.28139,-0.683611 -8.53566,-1.509941 -12.79016,-2.3439 -1.56565,-0.258876 -3.3906,0.437503 -3.95627,2.023511 -1.00858,2.624236 -0.64871,5.522404 -0.4612,8.258431 0.37683,3.337749 0.74451,6.702048 1.59294,9.957856 0.39431,0.938625 1.622,0.963535 2.4522,1.290631 2.37929,0.780149 5.06095,0.873954 7.16916,2.336151 0.42329,0.212599 0.79903,0.916585 0.19532,1.156645 -1.71932,0.934292 -3.73007,0.448458 -5.60393,0.557607 -7.00323,-0.129397 -14.02011,-0.186428 -21.00678,-0.599532 -1.80219,-0.218777 -3.77772,-0.172181 -5.37532,-1.141108 -0.86425,-0.653925 -0.19284,-1.872921 0.6311,-2.203297 2.47778,-1.228639 5.3092,-1.457318 7.99595,-1.908772 2.14347,-0.371427 4.37527,-0.37131 6.45298,-1.053619 1.53151,-0.720072 1.53259,-2.673117 1.6669,-4.1215 0.22079,-4.178923 0.11359,-8.366464 0.14526,-12.549223 -0.48286,-0.464988 -1.4401,-0.01501 -2.1005,-0.125997 -4.00463,0.118954 -8.05116,0.236552 -12.04114,-0.02173 -0.76536,-0.06273 -1.60226,-0.674357 -1.36504,-1.530519 0.37166,-1.487934 2.011,-2.098149 3.28264,-2.601111 5.84599,-1.894996 12.08055,-1.927672 18.18494,-1.739783 5.14577,0.278915 10.49436,0.849347 15.02985,3.483398 1.30232,0.754853 2.78332,2.004331 4.38317,1.427679 1.96309,-0.931378 3.33063,-2.731917 5.1467,-3.895844 1.80964,-1.278164 3.96348,-2.122213 6.19458,-2.092071 z"
       id="path3399"
       inkscape:connector-curvature="0" />
    <path
       style="color:#000000;clip-rule:nonzero;display:inline;overflow:visible;visibility:visible;opacity:1;isolation:auto;mix-blend-mode:normal;color-interpolation:sRGB;color-interpolation-filters:linearRGB;solid-color:#000000;solid-opacity:1;fill:#ffffff;fill-opacity:1;fill-rule:evenodd;stroke:none;stroke-width:0.99999988px;stroke-linecap:round;stroke-linejoin:round;stroke-miterlimit:4;stroke-dasharray:none;stroke-dashoffset:0;stroke-opacity:1;color-rendering:auto;image-rendering:auto;shape-rendering:auto;text-rendering:auto;enable-background:accumulate"
       d="m 416.38322,25.56764 c -2.9259,-0.03279 -5.23073,2.211262 -6.77414,4.468248 -2.56264,3.796041 -4.05689,8.505968 -3.45982,13.102389 0.25697,1.701488 0.98375,3.643451 2.76238,4.25073 2.44335,0.932373 5.11463,1.14255 7.70957,1.110033 1.68566,-0.172135 3.56091,-0.104134 5.01846,-1.091784 0.85033,-0.680129 0.13938,-1.832004 -0.45798,-2.422294 -2.49332,-2.625057 -6.11249,-3.915989 -8.38234,-6.775618 -0.31828,-0.400598 -0.65555,-1.369688 0.1317,-1.461712 1.402,-0.496205 2.77186,0.398705 4.04864,0.875269 2.68704,1.134749 5.02411,3.079931 7.87737,3.823321 1.00166,0.296932 1.9295,-0.496002 2.11377,-1.455054 0.49427,-2.173992 0.518,-4.495105 -0.0123,-6.664392 -1.23028,-3.802727 -4.60041,-6.914477 -8.54979,-7.653089 -0.67087,-0.08558 -1.34968,-0.110583 -2.02549,-0.106047 z"
       id="path3401"
       inkscape:connector-curvature="0" />
    <path
       style="color:#000000;clip-rule:nonzero;display:inline;overflow:visible;visibility:visible;opacity:1;isolation:auto;mix-blend-mode:normal;color-interpolation:sRGB;color-interpolation-filters:linearRGB;solid-color:#000000;solid-opacity:1;fill:#ffffff;fill-opacity:1;fill-rule:evenodd;stroke:none;stroke-width:0.99999988px;stroke-linecap:round;stroke-linejoin:round;stroke-miterlimit:4;stroke-dasharray:none;stroke-dashoffset:0;stroke-opacity:1;color-rendering:auto;image-rendering:auto;shape-rendering:auto;text-rendering:auto;enable-background:accumulate"
       d="m 556.47312,137.67286 c -1.13092,0.42734 -1.90258,1.49236 -2.74537,2.31946 -4.38905,4.99641 -8.01884,10.58786 -12.25182,15.70655 -4.78437,6.08399 -10.12347,11.70049 -15.31043,17.43941 -0.28391,0.29492 -0.85201,0.76846 -0.30047,1.10544 7.67303,7.65277 15.59924,15.0724 22.66698,23.30057 3.7991,4.30828 7.33912,8.83214 10.84825,13.37647 4.22626,5.16324 8.72957,10.15612 13.88985,14.40676 1.17178,0.84947 2.35676,1.93701 3.83789,2.13572 1.08079,-0.22758 1.67025,-1.34047 2.45306,-2.0249 4.72619,-5.12028 8.95612,-10.6919 13.9833,-15.52958 3.87411,-3.83856 7.93399,-7.4882 12.18592,-10.9073 2.58009,-2.25263 5.28657,-4.43261 7.40337,-7.14585 0.43994,-0.46992 0.47241,-1.16972 -0.004,-1.63311 -2.54504,-3.24423 -5.58229,-6.06346 -8.44088,-9.02512 -11.07072,-11.06789 -22.53586,-21.73226 -34.01077,-32.37753 -3.87279,-3.47275 -7.63202,-7.11398 -11.88609,-10.12607 -0.70956,-0.43989 -1.45659,-0.97583 -2.3186,-1.02092 z m 4.38341,22.90353 c 3.66798,0.0278 7.4987,1.09613 10.18389,3.72618 1.85534,1.8404 4.15912,3.38067 6.82065,3.64616 2.06291,0.22885 4.19898,0.2203 6.05141,1.2777 3.486,1.76638 6.17141,5.03059 7.21089,8.78274 0.61119,2.65441 -0.99232,5.15672 -2.70418,7.0321 -3.64205,3.96844 -8.44249,6.51337 -12.96699,9.31629 -3.98016,2.53706 -7.67336,5.54327 -10.79285,9.09503 -1.15885,1.08495 -2.30536,2.52103 -3.96806,2.79276 -0.92335,-0.0296 -1.02655,-1.21462 -1.15196,-1.88713 -0.3881,-4.12745 -2.11523,-7.96543 -3.5942,-11.7907 -2.77872,-6.62877 -5.61674,-13.3588 -6.63229,-20.52731 -0.17434,-2.27323 -0.59847,-4.74072 0.49218,-6.85031 1.25964,-1.92519 3.43718,-3.00542 5.54573,-3.75848 1.7838,-0.58861 3.62514,-0.86 5.50578,-0.85503 z"
       id="path3403"
       inkscape:connector-curvature="0" />
    <path
       style="color:#000000;clip-rule:nonzero;display:inline;overflow:visible;visibility:visible;opacity:1;isolation:auto;mix-blend-mode:normal;color-interpolation:sRGB;color-interpolation-filters:linearRGB;solid-color:#000000;solid-opacity:1;fill:#ff0000;fill-opacity:1;fill-rule:evenodd;stroke:none;stroke-width:0.99999988px;stroke-linecap:round;stroke-linejoin:round;stroke-miterlimit:4;stroke-dasharray:none;stroke-dashoffset:0;stroke-opacity:1;color-rendering:auto;image-rendering:auto;shape-rendering:auto;text-rendering:auto;enable-background:accumulate"
       d="m 560.51161,163.28396 c -2.20181,-0.0775 -4.16514,1.23032 -5.72972,2.65176 -1.50166,1.37296 -2.86856,3.19651 -2.82393,5.32781 -0.0425,2.53287 0.87445,4.94936 1.62269,7.33108 1.70922,4.88386 3.76703,9.66638 6.3652,14.14671 0.96685,1.56489 2.04074,3.16077 3.5849,4.20772 0.92604,0.5328 2.00378,-0.052 2.71397,-0.6822 3.31871,-2.72066 7.23852,-4.53191 10.94814,-6.64028 3.55688,-2.19761 7.08249,-4.68273 9.5459,-8.12116 0.80919,-1.11083 1.10333,-2.58452 0.64035,-3.89544 -0.76945,-2.71401 -2.83729,-5.00588 -5.42376,-6.10944 -2.232,-0.82078 -4.73448,-0.33809 -6.84902,0.60651 -2.45429,1.11928 -4.76374,2.87216 -6.01981,5.30867 -0.46634,1.06968 -0.84902,2.26338 -1.83716,2.98357 -0.74566,0.63112 -2.01145,0.92884 -2.78181,0.20769 -0.29,-0.68694 0.1912,-1.40843 0.37486,-2.06593 1.14699,-3.04327 2.61405,-5.98322 3.4177,-9.14535 0.25992,-1.03679 0.16247,-2.27152 -0.70749,-3.00468 -1.51574,-1.41984 -3.37594,-2.55434 -5.41207,-3.02717 -0.53731,-0.0938 -1.08583,-0.0759 -1.62894,-0.0799 z"
       id="path3405"
       inkscape:connector-curvature="0" />
    <path
       style="color:#000000;clip-rule:nonzero;display:inline;overflow:visible;visibility:visible;opacity:1;isolation:auto;mix-blend-mode:normal;color-interpolation:sRGB;color-interpolation-filters:linearRGB;solid-color:#000000;solid-opacity:1;fill:#000000;fill-opacity:1;fill-rule:evenodd;stroke:#000000;stroke-width:0.71428561px;stroke-linecap:round;stroke-linejoin:round;stroke-miterlimit:4;stroke-dasharray:none;stroke-dashoffset:0;stroke-opacity:1;color-rendering:auto;image-rendering:auto;shape-rendering:auto;text-rendering:auto;enable-background:accumulate"
       d="m 313.29633,87.256269 c -18.34369,0.50852 -33.73137,12.197814 -48.37893,21.939491 -25.84023,18.20177 -51.13423,37.47378 -72.76239,60.65246 -17.65691,18.70974 -36.1222,36.78854 -52.04227,57.03696 -6.51281,9.54838 -8.08169,21.4372 -10.79938,32.43118 -4.41267,19.68492 -1.45117,40.24989 3.73744,59.47451 5.57073,15.10161 10.73335,30.55665 18.71233,44.59403 12.20463,19.03492 33.10035,29.64911 52.05368,40.70858 13.63131,8.70083 30.35438,7.05785 45.74766,7.37197 19.08287,-0.31635 38.28271,0.72918 57.28359,-1.34299 27.05581,-4.20669 52.93013,-13.44686 78.69158,-22.36675 5.98062,-1.34481 12.77964,-4.01887 18.67048,-1.22768 1.65955,3.44323 -0.0621,7.79595 0.19531,11.51228 -2.99606,32.58392 -2.00501,65.84555 5.80232,97.7284 4.56647,19.37381 14.20521,37.1212 26.22596,52.85214 5.40624,6.8388 9.65463,14.83561 16.14276,20.70852 2.28114,1.56164 2.35011,-2.11627 1.49274,-3.33566 -4.90222,-15.20696 -13.17956,-29.20269 -16.27539,-45.01004 -5.73597,-22.76764 -8.75094,-46.1258 -9.17228,-69.60161 -0.21478,-15.88208 -1.70232,-31.8749 -0.28475,-47.70978 0.26567,-2.34594 2.15603,-6.52815 4.98605,-5.92215 1.95368,4.52183 1.59929,9.87046 3.21093,14.58117 4.93807,23.1659 13.59795,45.48691 25.82483,65.78358 4.11888,6.54425 3.955,15.52325 9.78678,20.96198 1.61723,1.36056 3.89472,0.12802 3.08734,-2.04799 -1.66461,-7.67582 -2.82847,-15.43011 -4.17132,-23.1822 -6.77458,-26.08049 -8.8079,-53.25899 -7.1024,-80.12416 0.19734,-1.36829 0.48943,-4.46794 2.16239,-4.52707 1.78559,5.28104 0.83953,11.35243 1.50391,16.91267 0.79385,11.52016 0.0419,23.37319 3.02315,34.61077 0.98135,4.76973 2.64005,-1.28844 3.38589,-3.07059 4.57252,-18.44828 10.59629,-38.08058 5.00278,-57.00893 -0.85015,-4.23715 -4.13581,-7.43362 -5.62081,-11.26535 1.08116,-2.50198 4.10037,-5.86049 7.04101,-4.7726 5.357,4.66652 7.30483,12.12435 10.30457,18.36155 2.99016,6.47542 4.05773,13.97105 7.98646,19.94342 2.08344,-0.0436 1.1744,-4.03247 1.88197,-5.40876 2.49482,-19.27916 2.49053,-39.07686 9.1555,-57.56581 0.77193,-3.6015 3.89815,-9.46374 -0.76404,-11.74083 -12.88019,-2.23674 -25.69725,2.63699 -38.58421,2.91473 -28.08655,1.61473 -57.41874,-3.41678 -81.00051,-19.49239 -16.09444,-10.55284 -33.52676,-21.34614 -42.5617,-39.05764 -8.79623,-16.43365 -16.86455,-33.61481 -21.06786,-51.8368 -2.27503,-17.2903 -2.72841,-35.06215 -0.33174,-52.33634 4.14018,-18.67821 13.22986,-35.70001 19.58257,-53.62348 1.51232,-5.2411 1.53993,-11.64588 -3.16267,-15.326452 -7.42373,-7.107584 -17.12341,-13.108598 -27.80552,-12.1875 l -0.71422,0.01004 -0.0796,0.0011 z"
       id="path3409"
       inkscape:connector-curvature="0" />
    <path
       style="color:#000000;clip-rule:nonzero;display:inline;overflow:visible;visibility:visible;opacity:1;isolation:auto;mix-blend-mode:normal;color-interpolation:sRGB;color-interpolation-filters:linearRGB;solid-color:#000000;solid-opacity:1;fill:#ffffff;fill-opacity:1;fill-rule:evenodd;stroke:none;stroke-width:0.99999988px;stroke-linecap:round;stroke-linejoin:round;stroke-miterlimit:4;stroke-dasharray:none;stroke-dashoffset:0;stroke-opacity:1;color-rendering:auto;image-rendering:auto;shape-rendering:auto;text-rendering:auto;enable-background:accumulate"
       d="m 188.70346,629.55811 c -2.51434,0.16764 -5.19572,0.14448 -7.48638,1.33298 -1.48516,0.82588 -2.25663,2.5915 -2.0499,4.2527 0.067,2.10353 0.34104,4.30092 1.34975,6.17806 0.93211,1.64976 3.04923,2.32678 4.81672,1.75346 2.80673,-0.75293 5.12935,-2.68394 7.16935,-4.6752 1.3102,-1.28569 2.14826,-3.18883 1.62707,-5.02581 -0.34281,-1.50933 -1.11321,-3.32262 -2.84007,-3.58881 -0.84689,-0.19132 -1.72074,-0.23597 -2.58654,-0.22738 z"
       id="path3411"
       inkscape:connector-curvature="0" />
    <path
       style="color:#000000;clip-rule:nonzero;display:inline;overflow:visible;visibility:visible;opacity:1;isolation:auto;mix-blend-mode:normal;color-interpolation:sRGB;color-interpolation-filters:linearRGB;solid-color:#000000;solid-opacity:1;fill:#ffffff;fill-opacity:1;fill-rule:evenodd;stroke:none;stroke-width:0.99999988px;stroke-linecap:round;stroke-linejoin:round;stroke-miterlimit:4;stroke-dasharray:none;stroke-dashoffset:0;stroke-opacity:1;color-rendering:auto;image-rendering:auto;shape-rendering:auto;text-rendering:auto;enable-background:accumulate"
       d="m 219.49535,630.5658 c -4.91798,0.11622 -9.86355,0.22734 -14.73082,0.99782 -1.38891,0.32238 -3.12959,0.51347 -3.96588,1.82276 -0.57601,1.31619 0.57781,2.58158 1.34457,3.53603 1.388,1.71631 3.53875,2.76329 5.75807,2.68322 5.42545,-6.2e-4 10.89783,-0.70415 16.05319,-2.43512 1.86698,-0.71889 3.71057,-1.80695 4.89564,-3.45341 0.58253,-0.77234 0.13181,-1.8781 -0.75047,-2.16902 -2.47139,-0.98744 -5.21232,-0.89264 -7.82867,-0.98138 -0.25853,-0.003 -0.51708,-5.1e-4 -0.77563,-9e-4 z"
       id="path3413"
       inkscape:connector-curvature="0" />
    <path
       style="color:#000000;clip-rule:nonzero;display:inline;overflow:visible;visibility:visible;opacity:1;isolation:auto;mix-blend-mode:normal;color-interpolation:sRGB;color-interpolation-filters:linearRGB;solid-color:#000000;solid-opacity:1;fill:#ffffff;fill-opacity:1;fill-rule:evenodd;stroke:none;stroke-width:0.99999988px;stroke-linecap:round;stroke-linejoin:round;stroke-miterlimit:4;stroke-dasharray:none;stroke-dashoffset:0;stroke-opacity:1;color-rendering:auto;image-rendering:auto;shape-rendering:auto;text-rendering:auto;enable-background:accumulate"
       d="m 247.61168,628.07272 c -2.86299,0.0882 -5.78103,0.0983 -8.56879,0.82297 -1.38471,0.33336 -2.35027,1.58567 -2.51305,2.97152 -0.27633,2.01965 -0.34534,4.14813 0.24095,6.11862 0.8713,1.86104 3.1774,2.28744 5.03519,2.27094 2.90297,0.027 6.23485,-0.57502 8.08742,-3.03521 1.55401,-2.26134 2.26026,-5.23036 1.5389,-7.90933 -0.63922,-1.47132 -2.52471,-1.22919 -3.82062,-1.23951 z"
       id="path3415"
       inkscape:connector-curvature="0" />
    <path
       style="color:#000000;clip-rule:nonzero;display:inline;overflow:visible;visibility:visible;opacity:1;isolation:auto;mix-blend-mode:normal;color-interpolation:sRGB;color-interpolation-filters:linearRGB;solid-color:#000000;solid-opacity:1;fill:#ffffff;fill-opacity:1;fill-rule:evenodd;stroke:none;stroke-width:0.99999988px;stroke-linecap:round;stroke-linejoin:round;stroke-miterlimit:4;stroke-dasharray:none;stroke-dashoffset:0;stroke-opacity:1;color-rendering:auto;image-rendering:auto;shape-rendering:auto;text-rendering:auto;enable-background:accumulate"
       d="m 264.29005,625.65191 c -1.96883,0.002 -4.33211,0.65262 -5.11464,2.67163 -1.25355,4.06447 2.50254,7.52327 5.59209,9.4756 1.00936,0.5898 2.66337,0.75343 3.27456,-0.4764 1.0228,-1.80944 0.89182,-3.99289 0.96927,-6.00278 -0.0913,-1.54011 0.0538,-3.23011 -0.7115,-4.62559 -0.83007,-1.11153 -2.42127,-0.9284 -3.65071,-1.04345 -0.1197,-0.001 -0.23938,-6.8e-4 -0.35907,9.9e-4 z"
       id="path3417"
       inkscape:connector-curvature="0" />
    <path
       style="color:#000000;clip-rule:nonzero;display:inline;overflow:visible;visibility:visible;opacity:1;isolation:auto;mix-blend-mode:normal;color-interpolation:sRGB;color-interpolation-filters:linearRGB;solid-color:#000000;solid-opacity:1;fill:#ffffff;fill-opacity:1;fill-rule:evenodd;stroke:none;stroke-width:0.99999988px;stroke-linecap:round;stroke-linejoin:round;stroke-miterlimit:4;stroke-dasharray:none;stroke-dashoffset:0;stroke-opacity:1;color-rendering:auto;image-rendering:auto;shape-rendering:auto;text-rendering:auto;enable-background:accumulate"
       d="m 263.66857,646.19283 c -1.28238,0.0915 -2.20298,1.28516 -2.63168,2.40232 -0.77581,2.62758 -0.92464,5.45446 -0.50113,8.15816 0.19208,1.30848 1.09108,2.8381 2.60011,2.7101 2.11612,-0.0428 3.92046,-1.41865 5.4345,-2.76657 1.0293,-0.88867 1.08759,-2.37698 0.63998,-3.57598 -0.83209,-2.34903 -1.69089,-5.00084 -3.8628,-6.4565 -0.50116,-0.30686 -1.08598,-0.50425 -1.67898,-0.47153 z"
       id="path3419"
       inkscape:connector-curvature="0" />
    <path
       style="color:#000000;clip-rule:nonzero;display:inline;overflow:visible;visibility:visible;opacity:1;isolation:auto;mix-blend-mode:normal;color-interpolation:sRGB;color-interpolation-filters:linearRGB;solid-color:#000000;solid-opacity:1;fill:#ffffff;fill-opacity:1;fill-rule:evenodd;stroke:none;stroke-width:0.99999988px;stroke-linecap:round;stroke-linejoin:round;stroke-miterlimit:4;stroke-dasharray:none;stroke-dashoffset:0;stroke-opacity:1;color-rendering:auto;image-rendering:auto;shape-rendering:auto;text-rendering:auto;enable-background:accumulate"
       d="m 248.08026,650.40484 c -1.87809,0.0753 -3.08564,1.85026 -3.43846,3.53559 -0.7252,2.8656 -0.98741,5.86985 -0.72472,8.81362 0.1829,1.18763 1.67715,1.40514 2.64453,1.14972 2.53446,-0.47654 5.11043,-0.93224 7.51988,-1.87231 0.93216,-0.39954 0.51581,-1.59174 0.4685,-2.35585 -0.50125,-2.97272 -1.27393,-6.24985 -3.68984,-8.2769 -0.78331,-0.61526 -1.76972,-1.03926 -2.77989,-0.99387 z"
       id="path3421"
       inkscape:connector-curvature="0" />
    <path
       style="color:#000000;clip-rule:nonzero;display:inline;overflow:visible;visibility:visible;opacity:1;isolation:auto;mix-blend-mode:normal;color-interpolation:sRGB;color-interpolation-filters:linearRGB;solid-color:#000000;solid-opacity:1;fill:#ffffff;fill-opacity:1;fill-rule:evenodd;stroke:none;stroke-width:0.99999988px;stroke-linecap:round;stroke-linejoin:round;stroke-miterlimit:4;stroke-dasharray:none;stroke-dashoffset:0;stroke-opacity:1;color-rendering:auto;image-rendering:auto;shape-rendering:auto;text-rendering:auto;enable-background:accumulate"
       d="m 229.32313,647.33912 c -2.53643,0.054 -5.50529,0.88316 -6.70779,3.33429 -1.26998,3.1161 -1.39836,6.56527 -1.33636,9.88934 0.12509,1.42199 0.0379,3.12243 1.125,4.20643 1.22406,0.67758 2.71333,0.64522 4.06976,0.84076 3.83096,0.20606 7.67116,0.12636 11.50622,0.16495 0.42446,-0.32878 -0.0505,-1.06449 0.01,-1.55407 -0.72606,-4.81099 -0.94401,-9.81764 -2.88925,-14.34346 -1.03488,-2.06203 -3.68582,-2.56348 -5.77729,-2.53824 z"
       id="path3423"
       inkscape:connector-curvature="0" />
    <path
       style="color:#000000;clip-rule:nonzero;display:inline;overflow:visible;visibility:visible;opacity:1;isolation:auto;mix-blend-mode:normal;color-interpolation:sRGB;color-interpolation-filters:linearRGB;solid-color:#000000;solid-opacity:1;fill:#ffffff;fill-opacity:1;fill-rule:evenodd;stroke:none;stroke-width:0.99999988px;stroke-linecap:round;stroke-linejoin:round;stroke-miterlimit:4;stroke-dasharray:none;stroke-dashoffset:0;stroke-opacity:1;color-rendering:auto;image-rendering:auto;shape-rendering:auto;text-rendering:auto;enable-background:accumulate"
       d="m 206.31109,650.36094 c -1.9856,0.14019 -3.66199,1.40574 -5.29878,2.41996 -2.62131,1.77625 -4.92051,4.00706 -6.96535,6.41345 -1.33358,1.74835 -1.18192,4.08317 -0.68224,6.10118 0.37678,1.39966 0.55277,3.06243 1.70793,4.07039 1.27745,0.8112 2.65974,-0.23123 3.95478,-0.41728 4.33116,-1.08926 8.80227,-1.40138 13.15838,-2.34683 1.13793,-0.27081 2.46804,-1.02823 2.43758,-2.36262 0.27658,-4.65706 -1.39729,-9.61922 -5.03959,-12.65936 -0.92959,-0.72588 -2.07295,-1.24947 -3.27271,-1.21889 z"
       id="path3425"
       inkscape:connector-curvature="0" />
    <path
       style="color:#000000;clip-rule:nonzero;display:inline;overflow:visible;visibility:visible;opacity:1;isolation:auto;mix-blend-mode:normal;color-interpolation:sRGB;color-interpolation-filters:linearRGB;solid-color:#000000;solid-opacity:1;fill:#ffffff;fill-opacity:1;fill-rule:evenodd;stroke:none;stroke-width:0.99999988px;stroke-linecap:round;stroke-linejoin:round;stroke-miterlimit:4;stroke-dasharray:none;stroke-dashoffset:0;stroke-opacity:1;color-rendering:auto;image-rendering:auto;shape-rendering:auto;text-rendering:auto;enable-background:accumulate"
       d="m 178.8271,654.91945 c -2.20817,0.0236 -4.51825,0.6706 -6.04119,2.35497 -2.85477,2.71701 -4.00587,6.7779 -4.15631,10.61692 -0.0326,2.56636 0.35417,5.29205 1.81367,7.46003 1.1197,1.17291 2.9115,0.6434 4.29538,0.38237 3.66061,-0.97258 7.29312,-2.07736 10.88231,-3.28212 0.28782,-0.68908 0.004,-1.54276 0.0523,-2.28797 -0.27816,-3.5633 -0.19324,-7.21058 -1.19166,-10.67286 -0.54667,-2.02645 -1.95213,-4.0724 -4.15578,-4.44088 -0.49257,-0.10062 -0.99653,-0.13694 -1.4987,-0.13046 z"
       id="path3427"
       inkscape:connector-curvature="0" />
    <path
       style="color:#000000;clip-rule:nonzero;display:inline;overflow:visible;visibility:visible;opacity:1;isolation:auto;mix-blend-mode:normal;color-interpolation:sRGB;color-interpolation-filters:linearRGB;solid-color:#000000;solid-opacity:1;fill:#000000;fill-opacity:1;fill-rule:evenodd;stroke:none;stroke-width:0.99999988px;stroke-linecap:round;stroke-linejoin:round;stroke-miterlimit:4;stroke-dasharray:none;stroke-dashoffset:0;stroke-opacity:1;color-rendering:auto;image-rendering:auto;shape-rendering:auto;text-rendering:auto;enable-background:accumulate"
       d="m 262.29388,440.07534 c -7.80503,0.11128 -15.43522,2.80714 -22.00313,6.93642 -6.29521,4.01917 -11.66504,9.56742 -15.2714,16.12163 -1.93866,3.62442 -3.18548,8.057 -1.678,12.06152 0.81905,2.23275 2.5362,4.08914 4.54198,5.32032 1.69481,0.9451 3.82721,0.31423 5.33279,-0.71973 3.56825,-2.32494 6.40262,-5.56578 9.41283,-8.53638 3.76498,-3.8701 7.46791,-7.79973 11.17925,-11.72108 5.22362,0.0993 10.48143,-0.0744 15.67882,0.30926 2.79849,0.2698 5.57791,0.75872 8.24054,1.68441 2.13798,0.53828 4.68258,0.98474 6.62937,-0.3423 1.55354,-1.10559 1.63036,-3.25705 1.08118,-4.9171 -1.28422,-5.03809 -4.59065,-9.45734 -8.9606,-12.24748 -3.63716,-2.51276 -8.0138,-3.86006 -12.4273,-3.92976 -0.58513,-0.0224 -1.17086,-0.025 -1.75633,-0.0197 z"
       id="path3429"
       inkscape:connector-curvature="0" />
    <path
       style="color:#000000;clip-rule:nonzero;display:inline;overflow:visible;visibility:visible;opacity:1;isolation:auto;mix-blend-mode:normal;color-interpolation:sRGB;color-interpolation-filters:linearRGB;solid-color:#000000;solid-opacity:1;fill:#000000;fill-opacity:1;fill-rule:evenodd;stroke:none;stroke-width:0.99999988px;stroke-linecap:round;stroke-linejoin:round;stroke-miterlimit:4;stroke-dasharray:none;stroke-dashoffset:0;stroke-opacity:1;color-rendering:auto;image-rendering:auto;shape-rendering:auto;text-rendering:auto;enable-background:accumulate"
       d="m 165.44746,424.73479 c -4.42409,0.1565 -8.83954,1.74291 -12.24573,4.59119 -1.8292,1.57231 -3.50607,3.74317 -3.39252,6.28196 0.0417,1.87348 1.13993,3.9189 3.07732,4.37113 2.23432,0.68586 4.6015,0.36332 6.89876,0.4162 3.61353,0.007 7.25997,-0.17791 10.84625,0.13564 2.04697,0.23843 4.05751,0.88224 5.79977,2.00391 1.92229,1.08543 3.71026,2.51416 5.83901,3.20269 0.63082,0.22928 1.52874,0.0935 1.73793,-0.64244 0.43769,-1.47665 -0.41911,-2.91935 -1.02503,-4.21586 -2.23831,-4.17895 -4.93225,-8.11512 -7.95036,-11.76869 -1.22914,-1.41894 -2.50757,-2.96979 -4.36899,-3.55018 -1.66396,-0.60834 -3.44797,-0.86811 -5.21641,-0.82555 z"
       id="path3431"
       inkscape:connector-curvature="0" />
    <path
       style="color:#000000;clip-rule:nonzero;display:inline;overflow:visible;visibility:visible;opacity:1;isolation:auto;mix-blend-mode:normal;color-interpolation:sRGB;color-interpolation-filters:linearRGB;solid-color:#000000;solid-opacity:1;fill:#cccccc;fill-opacity:1;fill-rule:evenodd;stroke:none;stroke-width:0.99999988px;stroke-linecap:round;stroke-linejoin:round;stroke-miterlimit:4;stroke-dasharray:none;stroke-dashoffset:0;stroke-opacity:1;color-rendering:auto;image-rendering:auto;shape-rendering:auto;text-rendering:auto;enable-background:accumulate"
       d="m 427.54682,770.18601 c -3.37956,0.21843 -4.33409,4.4227 -5.9958,6.75638 -5.99949,11.79762 -9.37933,24.87208 -9.65464,38.11876 -0.92961,14.66761 -1.67772,30.01274 -8.29629,43.39976 -4.05981,6.9544 -11.58792,10.85173 -18.07686,15.23386 -12.98535,8.38231 -28.52074,11.02846 -43.32048,14.49757 -16.3677,3.29976 -32.96142,6.61802 -49.75053,5.53764 -15.74583,-0.68913 -31.64196,-1.6787 -47.00808,-5.37487 -10.32857,-3.03525 -16.65295,-12.87616 -20.36621,-22.41143 -6.74411,-17.35647 -10.19171,-35.74593 -15.02526,-53.68304 -2.01082,-7.26006 -3.41557,-14.74327 -5.9291,-21.83804 -1.5121,-3.13366 -5.41922,-1.39225 -7.70257,-0.3288 -24.95691,10.52299 -49.2401,22.6082 -74.55842,32.2875 -29.167026,11.09627 -58.184592,22.7414 -85.965987,37.02058 -8.05298,4.31584 -16.750903,7.7975 -23.874637,13.61549 -1.201951,0.77547 -1.678855,3.12634 0.117391,3.41321 19.55106,12.43459 38.724103,25.53786 57.597571,38.99572 18.349911,13.57906 35.749532,28.40547 54.453652,41.51547 23.49969,16.71854 46.63098,33.96788 70.44013,50.24343 12.53753,7.7307 25.25484,15.3729 38.8455,21.1155 6.82933,2.0163 13.74882,-1.4542 20.27999,-3.1348 29.17379,-9.5242 57.7979,-20.629 86.65232,-31.03692 48.69508,-16.62279 97.86847,-31.83622 146.9844,-47.15929 31.59195,-9.38196 62.99861,-19.3675 94.45769,-29.16846 18.66837,-5.62353 37.56484,-10.92824 55.38671,-18.93816 1.41406,-0.34809 2.38366,-1.8421 0.92929,-2.86572 -9.60271,-8.73244 -20.49281,-15.96622 -31.247,-23.19839 -8.97455,-5.56884 -18.13759,-10.82653 -27.00506,-16.57226 -19.322,-11.52587 -40.16134,-20.32368 -59.23808,-32.26381 -6.14939,-4.68757 -13.39041,-7.40859 -20.26942,-10.76451 -6.75427,-4.1581 -13.51936,-8.32126 -20.80185,-11.49936 -15.6283,-8.38826 -28.97413,-20.32543 -44.2139,-29.31021 -2.41255,-1.27522 -5.05594,-2.39206 -7.84447,-2.2028 z"
       id="path3433"
       inkscape:connector-curvature="0" />
    <path
       style="color:#000000;clip-rule:nonzero;display:inline;overflow:visible;visibility:visible;opacity:1;isolation:auto;mix-blend-mode:normal;color-interpolation:sRGB;color-interpolation-filters:linearRGB;solid-color:#000000;solid-opacity:1;fill:#917c6f;fill-opacity:1;fill-rule:evenodd;stroke:none;stroke-width:0.99999988px;stroke-linecap:round;stroke-linejoin:round;stroke-miterlimit:4;stroke-dasharray:none;stroke-dashoffset:0;stroke-opacity:1;color-rendering:auto;image-rendering:auto;shape-rendering:auto;text-rendering:auto;enable-background:accumulate"
       d="m 161.47939,385.29615 c -13.17272,13.65381 -22.42223,30.73831 -29.3488,48.26142 -3.1122,11.10912 -3.42317,23.28539 -0.8591,34.504 1.89358,4.89452 7.48513,0.41191 9.46623,-2.03608 4.80545,-4.70505 9.76734,-11.91778 7.87012,-18.88315 -4.28317,-6.16504 -6.82725,-16.82518 0.45575,-21.84258 6.76331,-4.75442 16.01298,-6.71715 24.01085,-4.64236 8.74326,7.20538 17.43028,17.15258 18.37807,28.91957 -1.23359,3.81246 -4.84099,7.53847 -8.17592,9.17621 -5.04733,-3.16817 -8.08995,-9.60359 -13.17539,-12.01727 -5.11371,0.84261 -13.14291,-2.00301 -16.45641,3.33824 -0.22973,6.10056 -2.87384,11.83123 -3.5158,17.81578 1.55667,3.12678 5.90888,-1.09672 6.52258,-3.31851 1.56821,-2.82197 0.0325,-9.67679 4.62855,-9.22948 4.32207,3.39459 1.00863,10.05263 0.34724,14.44202 -1.00439,4.26074 4.4948,2.95904 6.27794,1.07526 3.75759,-1.43255 2.79187,-7.93768 6.84221,-8.32192 4.25157,4.33496 -0.0266,11.68687 -5.12376,13.28982 -11.20478,4.52091 -23.10536,-2.79724 -34.49513,-1.4008 -2.92701,3.66858 0.83973,8.93499 2.14262,12.66834 8.2381,16.02556 18.14508,31.437 30.05007,44.96363 3.67,3.21706 5.47229,-3.55971 6.53837,-5.93465 5.69135,-14.23974 9.91828,-29.13731 17.35805,-42.62173 0.82419,11.72026 -6.16977,22.25478 -8.94804,33.38422 -7.03983,23.12039 -14.8647,46.44084 -16.8582,70.64571 1.90238,9.6259 13.53381,12.97118 22.17206,13.1458 1.78121,-0.62966 5.5602,0.70202 2.63192,2.12487 -6.80569,3.22221 -14.32291,-1.06202 -21.18756,0.66686 -4.15551,4.48682 0.0682,11.99482 4.54175,14.73796 16.98156,10.15068 37.92681,7.69352 56.74839,5.94759 13.04846,-0.97653 26.11122,-4.17735 39.17269,-3.71815 6.23788,4.2493 5.35309,13.55236 4.15504,20.04127 -3.4417,7.12061 5.00135,15.30268 0.51889,22.10301 -15.64279,5.83724 -32.70386,7.04671 -49.16689,9.29564 -19.49265,1.38995 -39.43761,4.72058 -56.87348,13.90432 -9.98453,8.17454 -11.10726,24.57155 -2.5096,34.20906 10.83346,13.03753 26.74334,22.19838 33.00135,38.71746 14.40248,35.02617 19.61229,73.08971 32.773,108.55173 4.32666,11.94576 16.40504,19.42265 28.85574,19.76006 16.94042,1.22252 33.88544,4.74667 50.8722,1.84913 23.78282,-3.34396 48.06778,-7.51886 69.87921,-17.98882 8.85459,-5.70313 19.80331,-11.57152 21.78536,-22.98689 5.15404,-17.74613 2.69586,-36.66693 7.01582,-54.47721 10.67672,-28.97594 27.89395,-55.02092 45.0388,-80.51663 17.58887,-25.56614 34.56993,-52.57207 42.25061,-82.95248 1.17081,-13.87884 1.15777,-28.33578 -4.7706,-41.26237 -10.48483,-26.8737 -24.00629,-53.54313 -25.85359,-82.78318 -6.64928,-25.18369 -20.73245,-47.5566 -30.04415,-71.76227 -0.42945,-1.19991 -2.8246,-6.61725 -3.90447,-3.17646 -0.92256,25.45253 2.22196,51.0447 7.19668,75.99732 3.79143,19.82771 11.10005,38.68174 18.7788,57.24747 0.83175,4.38723 3.85212,10.77602 0.18786,14.53935 -6.19801,0.21346 -10.63382,-6.03107 -14.50905,-10.1107 -18.32694,-24.25939 -36.02544,-50.63832 -41.02416,-81.25568 -7.41623,-31.53108 -3.10298,-64.19333 -5.59483,-96.18659 -4.34441,-2.03736 -9.5899,1.62705 -14.02782,2.2808 -24.42972,7.46124 -48.54048,16.84109 -73.76273,21.12238 -28.92371,2.60585 -58.09197,1.90126 -87.06772,0.6015 -18.86605,-2.37366 -35.20754,-13.46936 -51.0732,-23.15935 -3.4302,-2.12694 -6.67134,-4.86718 -10.13842,-6.74249 z m 102.06486,50.77003 c 13.80591,-1.22285 28.20309,10.83211 26.408,25.20843 -1.46808,7.44224 -11.00776,5.2911 -16.4147,5.21972 -8.40472,-0.13428 -19.4371,-2.7645 -25.01142,5.60194 -5.30302,6.18834 -11.6035,14.33133 -20.48124,14.4657 -8.92528,-2.41757 -12.68308,-13.2791 -9.19791,-21.42431 5.75956,-18.41088 26.51191,-28.74854 44.69727,-29.07148 z m 3.45662,44.94192 c 4.50791,4.16257 9.08895,11.14918 16.05393,10.34618 2.10145,-1.70475 3.15515,-6.93941 6.72383,-3.75257 3.10222,2.96674 8.77918,1.47608 11.53981,4.19648 -4.70427,2.51842 -10.83899,2.28536 -15.58437,5.14743 -7.29351,-0.54386 -15.34539,-4.45568 -19.18895,-10.92424 -0.60636,-1.27391 -1.24826,-4.52205 0.45575,-5.01328 z m -17.79998,-0.0375 c 6.10333,7.83398 11.92466,16.58168 21.01393,21.27831 2.09654,2.48363 -3.74467,1.86473 -4.83768,1.15813 -8.26484,-3.58918 -15.81347,-11.70655 -16.54323,-20.93305 0.18959,-0.36438 -0.016,-1.20409 0.36698,-1.50339 z m 61.16552,125.96721 c 6.17908,2.55359 7.8422,10.47715 10.30868,16.10127 5.48747,15.02759 7.59759,33.42541 -2.80159,46.94448 -0.63323,1.67625 -4.98715,4.92033 -4.52202,1.22915 2.99093,-8.49798 8.82704,-16.52456 7.33348,-26.06272 -0.0271,-13.13694 -6.0215,-25.04296 -11.34843,-36.65355 -0.34671,-0.88705 0.0429,-1.61809 1.02988,-1.55863 z"
       id="path3435"
       inkscape:connector-curvature="0" />
    <path
       style="color:#000000;clip-rule:nonzero;display:inline;overflow:visible;visibility:visible;opacity:1;isolation:auto;mix-blend-mode:normal;color-interpolation:sRGB;color-interpolation-filters:linearRGB;solid-color:#000000;solid-opacity:1;fill:#917c6f;fill-opacity:1;fill-rule:evenodd;stroke:none;stroke-width:0.99999988px;stroke-linecap:round;stroke-linejoin:round;stroke-miterlimit:4;stroke-dasharray:none;stroke-dashoffset:0;stroke-opacity:1;color-rendering:auto;image-rendering:auto;shape-rendering:auto;text-rendering:auto;enable-background:accumulate"
       d="m 397.51727,391.89229 c -0.2158,0.15265 -0.0639,0.44911 -0.0806,0.66494 0.11184,1.59919 0.20907,3.19906 0.29406,4.79916 0.0404,0.23569 0.40437,0.19826 0.41166,-0.0367 0.23492,-1.24318 0.45273,-2.51988 0.29613,-3.78678 -0.0894,-0.58974 -0.27779,-1.22359 -0.74484,-1.62206 -0.0516,-0.051 -0.11374,-0.0198 -0.17646,-0.0185 z"
       id="path3437"
       inkscape:connector-curvature="0" />
    <path
       style="color:#000000;clip-rule:nonzero;display:inline;overflow:visible;visibility:visible;opacity:1;isolation:auto;mix-blend-mode:normal;color-interpolation:sRGB;color-interpolation-filters:linearRGB;solid-color:#000000;solid-opacity:1;fill:#917c6f;fill-opacity:1;fill-rule:evenodd;stroke:none;stroke-width:0.99999988px;stroke-linecap:round;stroke-linejoin:round;stroke-miterlimit:4;stroke-dasharray:none;stroke-dashoffset:0;stroke-opacity:1;color-rendering:auto;image-rendering:auto;shape-rendering:auto;text-rendering:auto;enable-background:accumulate"
       d="m 432.45647,431.26157 c -0.0724,0.0156 -0.12846,0.0733 -0.15228,0.142 -0.0612,0.14951 -0.10384,0.30814 -0.11533,0.46965 -0.007,0.19486 0.004,0.38985 0.007,0.58471 0.0114,0.4371 0.0203,0.87431 0.0346,1.31132 0.008,0.0961 0.0933,0.17822 0.19028,0.18019 0.1017,0.007 0.19824,-0.076 0.20736,-0.17748 0.01,-0.21984 0.0128,-0.44035 0.0199,-0.66012 0.0152,-0.55209 0.032,-1.10481 0.0507,-1.65707 0.002,-0.10474 -0.0917,-0.19851 -0.19641,-0.19717 -0.0153,-0.002 -0.0304,0.003 -0.0456,0.004 z"
       id="path3439"
       inkscape:connector-curvature="0" />
    <path
       style="color:#000000;clip-rule:nonzero;display:inline;overflow:visible;visibility:visible;opacity:1;isolation:auto;mix-blend-mode:normal;color-interpolation:sRGB;color-interpolation-filters:linearRGB;solid-color:#000000;solid-opacity:1;fill:#917c6f;fill-opacity:1;fill-rule:evenodd;stroke:none;stroke-width:0.99999988px;stroke-linecap:round;stroke-linejoin:round;stroke-miterlimit:4;stroke-dasharray:none;stroke-dashoffset:0;stroke-opacity:1;color-rendering:auto;image-rendering:auto;shape-rendering:auto;text-rendering:auto;enable-background:accumulate"
       d="m 155.64327,447.80923 c -0.34381,0.0142 -0.68769,0.0313 -1.0309,0.0559 -0.10445,0.0147 -0.1772,0.11369 -0.17814,0.21636 -0.0348,0.28154 -0.0758,0.5628 -0.10083,0.84525 -0.001,0.12305 0.12618,0.22384 0.24574,0.19385 0.11393,-0.0296 0.18406,-0.13514 0.27101,-0.20668 0.29554,-0.27714 0.61954,-0.52303 0.96171,-0.7396 0.0928,-0.0696 0.10549,-0.21795 0.0225,-0.30026 -0.0493,-0.0523 -0.1214,-0.0687 -0.19111,-0.0648 z"
       id="path3441"
       inkscape:connector-curvature="0" />
  </g>
  <g
     inkscape:label="Layer 1"
     inkscape:groupmode="layer"
     id="layer1"
     transform="translate(-45.274504,-16.562186)">
    <path
       style="fill:#000000"
       d="m 263.38327,1044.5927 c -7.20048,-4.4458 -17.04249,-10.1796 -21.87115,-12.7418 -4.82866,-2.5623 -18.52793,-11.8906 -30.44284,-20.7296 -11.91489,-8.839 -29.76989,-21.95946 -39.67776,-29.15657 -9.90787,-7.19697 -26.12075,-19.37853 -36.02863,-27.06989 -9.90787,-7.69136 -21.72976,-16.53695 -26.27087,-19.65666 -4.54111,-3.11985 -12.30978,-8.75846 -17.263717,-12.53037 -15.440218,-11.75616 -31.232436,-22.14063 -38.593535,-25.37788 -8.253603,-3.62978 -9.247017,-4.7764 -6.769464,-7.81364 2.491905,-3.05484 21.737332,-14.33397 36.355843,-21.30698 18.027553,-8.59913 54.668683,-24.06005 78.062023,-32.93871 16.59001,-6.29653 57.05156,-23.67606 72.4096,-31.10226 13.15629,-6.36154 13.71445,-7.49219 9.38654,-19.01364 -5.20519,-13.85687 -13.38411,-24.92967 -26.30836,-35.61684 -15.86852,-13.12179 -19.54969,-21.98045 -15.80622,-38.03722 0.73123,-3.13646 3.13979,-8.30328 5.35232,-11.48184 3.10127,-4.45531 3.93377,-7.25738 3.63409,-12.23186 -0.69043,-11.46098 0.018,-14.21787 4.86586,-18.93657 4.55017,-4.42892 4.73059,-5.06279 4.39273,-15.4334 -0.33708,-10.3472 -0.5823,-11.01269 -5.67181,-15.39273 -4.98654,-4.29142 -5.35618,-5.23077 -5.90586,-15.00841 -0.32251,-5.73674 -0.96595,-14.12944 -1.42987,-18.65043 -0.46391,-4.52099 -0.0543,-11.24642 0.91027,-14.94541 0.96456,-3.69899 2.77983,-11.49201 4.03394,-17.31781 l 2.28021,-10.59238 -12.46516,-17.80391 c -6.85584,-9.79216 -14.6387,-20.96982 -17.29525,-24.83925 -9.20848,-13.4127 -16.58701,-43.3864 -14.63998,-59.47176 0.92176,-7.61514 5.80956,-22.03705 8.61086,-25.40721 1.02488,-1.233 4.8059,-7.28589 8.40226,-13.45087 3.59638,-6.16499 8.87885,-13.68588 11.73885,-16.7131 l 5.19997,-5.50403 -5.03097,-6.32397 c -2.76702,-3.47819 -6.28924,-8.66126 -7.82716,-11.51795 -6.05845,-11.25366 -19.23702,-48.0547 -21.51314,-60.07524 -5.01316,-26.47522 0.20073,-61.67343 11.83396,-79.88938 6.18276,-9.6813 67.03562,-73.27598 82.2967,-86.00473 19.04754,-15.88689 42.02595,-33.04738 51.65729,-38.57814 4.95943,-2.84794 10.36823,-6.36543 12.01954,-7.81666 1.65131,-1.45123 7.20413,-4.38442 12.33961,-6.51819 17.162,-7.13077 36.07548,-4.706325 50.11719,6.4243 7.4064,5.87095 8.20265,6.13817 18.42841,6.18486 6.50038,0.0296 13.92231,1.1643 18.94411,2.89608 4.54111,1.56603 8.70221,2.38475 9.2469,1.8194 0.54468,-0.56536 1.46901,-6.91268 2.05404,-14.10516 0.85629,-10.527084 0.66316,-13.12947 -0.99033,-13.345087 -1.12973,-0.147362 -8.47165,-0.333612 -16.31538,-0.413988 -16.84296,-0.17259 -23.57245,-2.818003 -28.23586,-11.099736 -2.67065,-4.742793 -3.09322,-8.521158 -3.44614,-30.812858 -0.29569,-18.677465 0.11529,-26.357286 1.55189,-28.99412 l 1.95413,-3.586915 24.22104,1.330247 c 13.32157,0.731637 36.82485,1.336942 52.22949,1.345102 15.40464,0.0075 28.45547,0.453713 29.00184,0.990104 0.54639,0.536391 1.11555,14.756445 1.26483,31.600122 0.32039,36.151839 0.72461,35.160898 -15.90422,38.988643 -8.68421,1.998994 -13.38902,2.230439 -23.60599,1.161259 -7.01807,-0.734433 -13.29882,-0.855236 -13.95722,-0.268435 -0.65839,0.586787 -1.59814,8.117707 -2.08832,16.735382 l -0.89126,15.66849 5.46775,3.36427 c 3.00726,1.85037 7.90726,7.02329 10.88889,11.49539 5.06757,7.60081 5.35562,8.6531 4.41666,16.13502 -0.87624,6.98209 -1.7602,8.60852 -6.92406,12.73995 -3.25577,2.60482 -5.91959,5.31288 -5.91959,6.01793 0,0.70504 2.53326,0.94954 5.62947,0.54333 8.46766,-1.11093 37.86418,2.02837 44.38161,4.73958 14.12143,5.8744 28.27484,20.73029 31.0156,32.55501 2.14159,9.23965 1.85552,18.56535 -0.72167,23.52701 -2.06763,3.98064 -2.0356,4.4678 0.3753,5.70723 1.44973,0.74531 5.33803,1.82473 8.64066,2.39873 3.30262,0.574 10.66093,3.16018 16.3518,5.74705 l 10.34703,4.70343 13.29676,-13.8168 c 7.85548,-8.16269 13.29675,-15.06554 13.29675,-16.86839 0,-2.90748 -15.23661,-19.16464 -26.89797,-28.69956 l -5.13065,-4.19509 7.77697,-6.77297 c 4.27734,-3.72513 10.923,-11.25295 14.76815,-16.72849 9.98397,-14.21729 15.45648,-19.67003 19.74133,-19.67003 2.37921,0 7.67171,3.5028 15.09274,9.98903 17.05898,14.91016 49.70907,48.62765 49.70907,51.33419 0,1.30106 -4.33463,5.53417 -9.63251,9.40691 -11.18154,8.17369 -23.27602,20.89078 -28.81178,30.29499 -2.13092,3.62003 -4.50024,6.58187 -5.26514,6.58187 -0.76491,0 -6.76606,-5.38035 -13.3359,-11.95634 -6.56983,-6.57598 -12.56663,-11.95633 -13.32623,-11.95633 -0.75961,0 -7.46395,6.42992 -14.89855,14.28872 l -13.51743,14.28869 2.80717,7.95153 c 2.29611,6.50387 2.55688,9.4826 1.43237,16.36129 -0.75615,4.62536 -2.37171,9.8267 -3.59012,11.55853 -2.50955,3.56699 -1.70444,7.28924 1.57661,7.28924 2.62737,0 13.58743,7.33736 17.61641,11.79354 5.38883,5.96022 2.30441,18.89968 -6.06809,25.45632 -2.20483,1.72663 -6.59656,3.5513 -9.75941,4.05481 -6.74427,1.07368 -7.75996,2.08707 -11.0411,11.01606 -5.27311,14.34972 -6.78307,22.47612 -8.32876,44.82446 -1.29605,18.73897 -2.0875,23.53314 -4.14198,25.08998 -4.08589,3.09618 -8.28339,1.48028 -12.31252,-4.73989 l -3.75979,-5.80442 -0.92051,7.33399 c -0.50627,4.03369 -1.95329,11.01721 -3.21558,15.51893 -1.26229,4.50171 -2.70423,10.98388 -3.20433,14.40482 -0.50009,3.42093 -2.29571,9.44005 -3.99029,13.37579 -2.95852,6.8714 -2.9885,7.61049 -0.75403,18.58918 1.27984,6.2883 2.32698,12.80216 2.32698,14.47524 0,1.67308 1.11835,6.48934 2.4852,10.70281 2.66975,8.2298 1.29575,15.10052 -3.0198,15.10052 -5.34437,0 -5.7076,3.83035 -1.86508,19.66856 4.37581,18.03639 5.80711,22.08778 15.22736,43.10218 9.31592,20.78163 11.10324,26.69311 12.76874,42.23185 1.32941,12.40327 1.17408,13.77212 -2.96805,26.15447 -2.40398,7.1864 -6.37968,17.10146 -8.83488,22.03345 -2.45519,4.93198 -5.47006,11.38138 -6.69971,14.33198 -3.08702,7.40748 -12.56833,22.44002 -20.34908,32.26334 -3.57498,4.51344 -8.5525,12.01695 -11.06117,16.67446 -4.63056,8.59696 -6.41128,11.49105 -17.49969,28.44119 -3.4221,5.23116 -6.22201,10.0571 -6.22201,10.72432 0,0.66722 7.26202,5.94699 16.13783,11.73279 8.8758,5.78581 18.81002,12.3931 22.07603,14.68289 7.2848,5.10731 24.8306,14.86084 39.72378,22.08206 6.12401,2.96932 13.2015,6.87774 15.72776,8.68538 6.38655,4.56984 27.70946,16.43111 33.9869,18.90584 6.92731,2.73093 23.19904,11.53996 30.99403,16.77923 3.45138,2.3198 6.62635,4.21781 7.05548,4.21781 4.37931,0 55.06827,36.06514 54.58115,38.83444 -0.37408,2.12659 -10.35344,6.17706 -40.13982,16.29214 -7.01808,2.3832 -15.12452,4.81512 -18.01431,5.40397 -4.47742,0.91256 -24.06034,7.00013 -65.30189,20.29976 -4.95394,1.59766 -16.10029,4.95171 -24.76968,7.45372 -8.66939,2.50201 -30.62434,9.26482 -48.78877,15.02866 -18.16443,5.7637 -46.87474,14.8553 -63.80069,20.20352 -16.92595,5.34803 -39.21866,12.79763 -49.53936,16.55443 -10.32071,3.7567 -28.89797,10.3658 -41.28281,14.6869 -12.38484,4.3211 -25.01238,8.9237 -28.06119,10.228 -5.72944,2.4512 -35.79758,11.3904 -38.15872,11.3445 -0.73357,-0.015 -7.22506,-3.6634 -14.42551,-8.1093 z m 39.36262,-4.4713 c 34.41378,-12.0232 57.08868,-20.2065 67.55368,-24.3802 13.60457,-5.4259 32.52454,-11.7948 74.30904,-25.01368 17.33878,-5.48541 44.02248,-13.95124 59.29712,-18.81299 15.27463,-4.86174 37.22958,-11.57971 48.78876,-14.92897 11.55919,-3.34912 33.17636,-10.04676 48.03817,-14.88354 14.86181,-4.83694 30.06139,-9.56552 33.77684,-10.50827 16.15435,-4.09849 49.62915,-16.12478 49.44446,-17.76347 -0.22592,-2.00425 -29.93053,-23.64717 -38.8739,-28.3237 -5.40098,-2.82419 -12.18434,-6.96018 -15.07414,-9.19107 -2.88979,-2.2309 -14.71169,-8.84713 -26.27087,-14.70275 -26.07758,-13.21029 -35.07579,-18.19117 -41.50665,-22.97557 -2.76668,-2.05834 -7.51025,-4.53287 -10.54128,-5.49892 -3.03103,-0.96606 -8.33568,-3.79363 -11.78812,-6.28349 -3.45244,-2.48985 -8.74712,-5.39459 -11.76596,-6.45498 -5.12899,-1.8016 -20.05982,-11.56194 -36.6169,-23.93661 -8.9851,-6.71541 -16.72872,-10.42946 -19.52088,-9.36277 -1.18774,0.45376 -3.70332,4.08003 -5.5902,8.05838 -6.16259,12.99338 -9.03631,25.79145 -9.03631,40.24308 0,14.4808 -3.88642,33.20237 -8.51023,40.99514 -2.48194,4.18299 -11.30373,10.8305 -23.42353,17.65042 -11.62255,6.5401 -56.7787,16.38505 -78.2785,17.06626 -14.35336,0.45479 -48.05294,-2.93131 -56.5336,-5.68042 -14.75021,-4.78149 -21.24689,-16.84059 -30.95449,-57.45761 -1.27701,-5.34298 -3.22363,-13.07724 -4.32585,-17.18723 -1.10224,-4.10999 -2.958,-11.50797 -4.12393,-16.43995 -1.69783,-7.18199 -2.68229,-8.92857 -4.94485,-8.77295 -1.55375,0.10686 -12.28251,4.59509 -23.84169,9.97381 -29.13301,13.55621 -48.94755,21.86655 -74.30905,31.16568 -4.5411,1.66505 -11.63424,4.5256 -15.76252,6.35679 -4.12828,1.83117 -11.53347,4.96451 -16.45597,6.96298 -4.92252,1.99845 -19.554464,8.87185 -32.515432,15.2742 -22.165172,10.94895 -29.624104,15.80942 -26.088239,16.9999 1.446009,0.48685 18.093201,11.60555 47.544581,31.75512 7.70238,5.26968 19.07085,13.69725 25.26327,18.72788 18.53539,15.05795 30.09955,23.74662 55.35133,41.5883 6.0864,4.30025 17.69758,12.66056 25.80267,18.5784 25.4731,18.5988 30.22692,21.7348 48.69918,32.1266 12.97962,7.3017 19.48276,10.1179 23.26849,10.0764 2.88979,-0.031 11.67177,-2.3 19.5155,-5.0402 z m 66.05248,-136.94996 c 24.7435,-4.50032 46.23482,-10.31675 54.04295,-14.62624 11.86104,-6.54641 20.59876,-13.52988 22.23314,-17.76942 4.51232,-11.70495 6.28952,-22.06493 6.28952,-36.66386 0,-12.74363 0.71478,-17.82927 3.85365,-27.41901 5.19838,-15.88178 28.70896,-56.99546 45.9484,-80.35137 9.85577,-13.35256 20.24227,-30.3008 26.20822,-42.76544 21.32707,-44.55869 21.0386,-55.87896 -2.7315,-107.19161 -5.56492,-12.01303 -13.20919,-40.98762 -13.22148,-50.11429 -0.006,-4.23286 -1.22314,-9.35872 -3.01197,-12.68149 -1.65131,-3.06733 -3.00238,-6.65903 -3.00238,-7.98156 0,-1.32252 -3.80934,-9.73927 -8.4652,-18.70391 -4.65586,-8.96462 -10.36962,-21.67965 -12.69727,-28.25564 -2.32764,-6.57598 -4.76702,-11.78819 -5.42083,-11.58269 -0.65383,0.2055 -1.17689,0.87804 -1.16238,1.49454 1.29799,55.13535 9.62368,95.95865 26.4542,129.71262 3.69791,7.41623 3.39277,17.59371 -0.54976,18.33739 -3.74483,0.70637 -12.43069,-6.42111 -18.58135,-15.24759 -29.25118,-41.97676 -34.27439,-53.87529 -40.4492,-95.81252 -2.20255,-14.95894 -3.03267,-62.61171 -1.25592,-72.09584 1.35446,-7.23 -1.76822,-7.42667 -19.29502,-1.21523 -16.07344,5.69637 -31.60879,10.5265 -54.43522,16.92458 -12.51618,3.50819 -16.43917,3.83701 -53.29234,4.46685 -43.99205,0.75186 -55.34392,-0.38287 -69.05487,-6.90264 -10.37404,-4.93304 -29.30048,-15.85779 -35.43596,-20.45442 l -4.6615,-3.49235 -5.31239,5.51553 c -2.9218,3.03354 -6.74408,8.36462 -8.49393,11.84684 -1.74987,3.48222 -5.2195,9.53056 -7.71031,13.44076 -5.65893,8.88367 -10.44835,24.58981 -10.42664,34.19255 0.0236,10.41733 1.59463,18.52064 3.59084,18.52064 4.17093,0 12.56015,-9.04411 14.1411,-15.24501 1.43029,-5.60989 1.27244,-6.75733 -1.30535,-9.48911 -3.26842,-3.46366 -3.94624,-12.43444 -1.31007,-17.33836 2.35177,-4.37485 12.98539,-8.67118 21.55549,-8.70911 7.03393,-0.0311 7.78916,0.36996 14.68569,7.79934 7.43607,8.01061 12.19162,19.0251 10.68713,24.75279 -0.41993,1.5987 -2.69516,4.32851 -5.05604,6.06626 l -4.29252,3.15955 -5.57615,-6.77481 c -5.53101,-6.71995 -5.64408,-6.77121 -13.97154,-6.33358 l -8.39543,0.44119 -0.81947,6.72544 c -0.4507,3.69899 -1.65667,8.23866 -2.6799,10.08815 -1.53498,2.77445 -1.48943,3.36272 0.26036,3.36272 3.17873,0 5.18734,-3.13815 5.74345,-8.97324 0.38724,-4.0633 1.16544,-5.2249 3.50034,-5.2249 3.66187,0 4.77154,6.14989 2.35495,13.05139 -1.97137,5.63003 -1.58852,6.11863 3.33439,4.25523 2.644,-1.0008 4.00543,-2.76944 4.33648,-5.63357 0.63985,-5.53591 5.04318,-6.40753 6.34204,-1.25537 1.26273,5.00887 -1.07617,9.15141 -6.84335,12.12051 -4.89908,2.52219 -9.72955,2.35102 -25.74849,-0.91245 -4.7949,-0.97684 -9.13779,-1.35815 -9.65087,-0.84736 -2.27252,2.26246 5.00369,18.19838 14.48653,31.72758 5.68558,8.11162 12.08741,17.27044 14.22628,20.35294 2.13888,3.08249 4.82189,5.60453 5.96225,5.60453 1.32326,0 4.35283,-6.85315 8.37387,-18.94236 6.7582,-20.31856 11.27181,-30.37751 13.63087,-30.37751 2.59037,0 1.58726,6.21735 -2.87702,17.83209 -5.63273,14.65476 -12.94629,37.69198 -14.97821,47.18046 -0.88013,4.10999 -2.35485,10.49916 -3.27712,14.19815 -3.32727,13.34467 -4.77953,23.7714 -3.83356,27.52371 1.28101,5.08134 10.76982,9.83983 19.62143,9.83983 5.05714,0 6.81517,0.57829 6.81517,2.24181 0,2.83931 -12.90326,3.75439 -20.49668,1.45359 -4.38888,-1.32983 -5.92885,3.67748 -2.91529,9.47925 5.81101,11.18745 33.22105,15.15861 67.69716,9.80791 8.25656,-1.2814 19.14459,-2.67784 24.19562,-3.10319 8.36803,-0.70466 9.40136,-0.46398 11.63425,2.70978 2.7531,3.91319 3.26437,14.95153 0.89654,19.35626 -0.96132,1.78828 -1.03669,3.88835 -0.1976,5.50628 2.22655,4.29326 3.29792,12.92807 1.88086,15.15907 -0.72727,1.14502 -4.26268,2.59203 -7.85645,3.21561 -3.59378,0.62357 -10.58736,2.17878 -15.54129,3.456 -4.95394,1.27723 -18.46467,2.99436 -30.02386,3.81583 -16.40197,1.16565 -24.14813,2.49479 -35.27803,6.05331 -18.25167,5.83551 -19.93294,6.75186 -22.91326,12.48842 -7.41999,14.28212 -3.88609,25.18808 12.62267,38.95485 15.88417,13.24591 21.66535,21.80521 28.30678,41.9094 3.37677,10.22175 13.63232,47.94828 19.7357,72.60063 4.58352,18.51346 8.59567,27.62926 14.66649,33.32303 6.47122,6.06931 14.25354,8.47393 28.0696,8.6731 5.6838,0.0819 12.02303,0.68745 14.08717,1.34557 6.99132,2.22909 24.69585,1.55652 42.03339,-1.59681 z m -11.36763,-214.1075 c -0.47347,-1.22839 0.99393,-5.0238 3.26088,-8.43422 5.84139,-8.78783 6.45077,-19.21182 2.02728,-34.67831 -1.9025,-6.65203 -5.12271,-14.06293 -7.15603,-16.46868 -3.8744,-4.58406 -2.82118,-8.47526 1.81462,-6.70423 6.33291,2.41939 15.1763,29.99271 14.14995,44.11892 -0.92921,12.78929 -11.37808,29.21974 -14.0967,22.16652 z m -49.43067,-169.3675 c -7.0962,-3.7636 -9.98065,-6.77141 -13.05598,-13.61437 -4.57526,-10.18045 -0.33538,-13.36593 4.70308,-3.53349 3.17956,6.20484 10.14853,12.81897 15.1828,14.4097 3.36341,1.06277 3.23088,4.256 -0.19894,4.7934 -1.17006,0.18332 -4.154,-0.74154 -6.63096,-2.05524 z m 15.24489,-7.18354 c -3.17449,-1.12684 -7.3966,-3.56846 -9.38245,-5.42581 -4.04385,-3.78217 -4.90512,-10.32868 -1.35887,-10.32868 1.23849,0 2.25179,0.57434 2.25179,1.27631 0,0.70196 1.65659,3.05586 3.6813,5.2309 3.97236,4.26724 11.33063,5.46042 11.33063,1.83731 0,-3.14867 3.39073,-3.785 6.37555,-1.1965 1.44242,1.2509 4.69228,2.21578 7.22191,2.14418 3.54456,-0.10029 4.48606,0.44728 4.10545,2.38788 -0.35341,1.80187 -2.09607,2.54809 -6.12697,2.62363 -3.09821,0.058 -6.4298,0.89872 -7.40357,1.86817 -2.20364,2.19389 -3.47859,2.14413 -10.69477,-0.41739 z m -56.41251,-12.15098 c -3.95453,-3.31277 -4.61402,-4.87104 -4.5858,-10.83543 0.045,-9.50817 4.20544,-17.86787 12.51771,-25.15219 13.706,-12.01106 36.22255,-16.43199 48.55253,-9.53286 7.82178,4.37662 12.92873,12.14754 13.08259,19.90698 0.17764,8.95943 -4.03345,10.76255 -20.50523,8.78001 -14.63541,-1.76151 -16.60717,-1.01463 -24.48304,9.27399 -5.12917,6.70048 -12.48303,11.4287 -17.77519,11.4287 -1.20164,0 -4.26327,-1.74114 -6.80357,-3.8692 z m 22.40484,-14.30057 9.75987,-10.22652 9.28261,0 c 5.10542,0 11.10464,0.68967 13.33158,1.53261 6.15033,2.32799 10.12429,0.52361 8.96598,-4.071 -1.57912,-6.26383 -5.46487,-10.92859 -11.77195,-14.13196 -11.5023,-5.84205 -30.85783,-0.25895 -42.11731,12.14875 -8.948,9.86048 -10.93652,18.50558 -5.50127,23.91675 4.09698,4.07882 6.64055,2.78684 18.05049,-9.16863 z m -64.46712,204.61383 6.04377,-1.86818 -0.43794,-7.31879 c -0.4901,-8.1901 -3.03622,-10.85612 -8.9554,-9.37708 -5.64107,1.40955 -9.02934,11.07502 -6.33387,18.06817 1.09888,2.85097 1.9272,2.89339 9.68344,0.49588 z m 27.68576,-6.91716 c 7.10087,-0.94654 7.48957,-1.22871 7.20222,-5.22846 -0.41342,-5.75457 -4.37748,-11.39341 -8.00947,-11.39341 -1.64441,0 -5.42675,2.22338 -8.40522,4.94085 -4.80618,4.38501 -5.2943,5.48973 -4.33899,9.81996 0.8304,3.76401 1.64424,4.64857 3.56095,3.87035 1.36651,-0.55482 5.86223,-1.459 9.99051,-2.00929 z m 29.78775,-8.77553 c -0.5111,-3.90449 -1.59419,-7.93975 -2.40688,-8.96725 -2.33018,-2.94607 -9.7865,-2.28677 -11.56553,1.02266 -1.7353,3.22809 -2.10073,12.50665 -0.55321,14.0473 0.55043,0.548 4.25296,0.99636 8.22785,0.99636 l 7.22704,0 -0.92927,-7.09907 z m 17.34906,3.2137 c 0.3299,-0.30093 -0.0305,-2.7444 -0.80071,-5.42996 -1.75252,-6.11003 -7.17873,-7.59183 -8.59009,-2.34578 -0.50919,1.89262 -0.93502,5.00779 -0.94629,6.92261 -0.0185,3.1472 0.44792,3.38155 4.85838,2.44085 2.68338,-0.57233 5.14879,-1.28681 5.47871,-1.58772 z m 12.88948,-4.1342 c 2.50793,-1.82571 2.59526,-2.54364 0.82663,-6.79459 -2.44062,-5.86608 -6.60157,-5.64859 -7.29722,0.3814 -0.91233,7.90812 1.34447,10.14489 6.47059,6.41319 z m -72.21976,-7.56129 c 2.37582,-1.93437 3.88069,-4.22419 3.34415,-5.08847 -0.85244,-1.37317 -3.45303,-0.49496 -11.22694,3.79128 -0.98283,0.54191 1.16871,4.92393 2.39014,4.86798 0.64515,-0.0296 3.11685,-1.63642 5.49265,-3.57079 z m 23.45242,-3.10091 c 0,-1.23299 -1.01331,-2.24181 -2.25179,-2.24181 -2.34422,0 -2.97832,1.7676 -1.25099,3.48726 1.72732,1.71968 3.50278,1.08838 3.50278,-1.24545 z m 39.03101,-4.57183 c 0,-2.4661 -2.37254,-2.88275 -3.75298,-0.65906 -1.22424,1.97208 0.57077,4.77068 2.35552,3.67252 0.7686,-0.47292 1.39746,-1.82898 1.39746,-3.01346 z m -66.69444,-2.6148 c 3.08697,-2.64353 3.77897,-4.23477 2.95951,-6.80522 -0.91742,-2.87774 -1.95715,-3.29043 -7.31007,-2.90152 -6.71758,0.48807 -8.12226,2.5913 -6.37076,9.53887 1.16845,4.63487 5.42714,4.70154 10.72132,0.16787 z m 34.8873,-3.5457 c 6.50419,-4.05101 3.11927,-5.7436 -10.36689,-5.18379 -14.17204,0.5883 -16.65347,1.76388 -12.76126,6.04566 2.21942,2.44156 3.994,2.77613 11.14842,2.10185 4.67987,-0.44105 10.07074,-1.77474 11.97973,-2.96372 z m 23.44335,1.65833 c 1.29747,-1.2917 2.35902,-4.01873 2.35902,-6.06005 0,-3.49532 -0.41532,-3.68496 -7.13067,-3.25597 -6.15654,0.39329 -7.19816,0.92976 -7.62467,3.92694 -0.27172,1.90928 -0.124,4.43132 0.32817,5.60453 1.10381,2.86371 9.11901,2.72062 12.06815,-0.21545 z m 19.62274,-5.99595 c 0,-5.50767 -0.26616,-5.85363 -4.50358,-5.85363 -5.84371,0 -6.9158,5.06783 -2.03063,9.59887 4.62909,4.29355 6.53421,3.2016 6.53421,-3.74524 z M 497.8623,579.44373 c -0.9985,-3.14404 -3.75556,-9.75169 -6.12679,-14.68368 -4.88383,-10.15804 -7.66746,-18.93541 -11.13844,-35.12172 -5.58422,-26.04106 -6.84142,-38.07584 -7.73305,-74.02544 -0.85514,-34.47843 -0.72035,-37.61571 1.72045,-40.0457 3.01961,-3.00622 6.24489,-2.54643 5.65959,0.80684 -0.68466,3.92268 6.8494,33.084 11.59757,44.88944 5.43761,13.51958 11.16248,25.07222 15.78504,31.85378 1.85386,2.7197 3.80539,7.50987 4.33677,10.64484 1.05199,6.20662 6.05829,13.8155 7.89007,11.99184 0.62765,-0.62488 0.33609,-3.35276 -0.64793,-6.06195 -0.98401,-2.7092 -1.78912,-6.90013 -1.78912,-9.31319 0,-2.41306 -0.6946,-6.73684 -1.54357,-9.60841 -8.23355,-27.84951 -11.37671,-85.92627 -4.6504,-85.92627 1.59223,0 2.11029,4.79542 2.42191,22.41812 0.21802,12.32997 1.07085,24.43576 1.89515,26.90175 l 1.49876,4.48362 1.69027,-4.20728 c 0.92964,-2.314 1.69027,-5.3426 1.69027,-6.73019 0,-1.38761 1.35107,-7.22644 3.00238,-12.97519 4.87591,-16.9746 3.03412,-38.11707 -3.994,-45.84865 -2.3049,-2.53561 -2.28823,-2.93063 0.24102,-5.71303 4.68395,-5.15278 7.83402,-3.74395 12.53158,5.60453 2.37502,4.72649 5.81867,13.46955 7.65253,19.42904 1.83386,5.95948 3.84628,10.83542 4.47205,10.83542 0.62576,0 1.93695,-10.35443 2.91373,-23.00984 1.31124,-16.989 2.74847,-25.85652 5.49264,-33.88897 2.04419,-5.9835 3.71669,-12.03443 3.71669,-13.44651 0,-5.05936 -7.49243,-5.60716 -26.90448,-1.96707 -25.60502,4.80137 -57.29102,1.05418 -80.68794,-9.5422 -8.88188,-4.02257 -36.54053,-22.68866 -43.60375,-29.42702 -9.5271,-9.08894 -17.78552,-23.45839 -27.95115,-48.63433 -7.20862,-17.85273 -8.64524,-26.18531 -8.63211,-50.06714 0.0105,-18.86839 0.44228,-22.31817 4.39717,-35.12173 2.41212,-7.80898 7.50211,-20.92358 11.3111,-29.14356 8.60445,-18.56886 8.77095,-22.30687 1.31048,-29.42285 -16.495,-15.733334 -34.58526,-15.13514 -62.12767,2.05439 -13.22288,8.25254 -43.88089,30.95371 -59.09364,43.75674 -17.53716,14.75926 -76.5347,77.20193 -80.76662,85.48296 -4.24364,8.30394 -9.94188,31.33393 -10.73005,43.36655 -0.98789,15.08136 3.27533,41.3487 8.74218,53.86389 2.07566,4.75177 5.85799,13.95156 8.40519,20.44395 8.56423,21.82873 17.47251,31.23701 45.07604,47.60603 18.89198,11.20304 22.47359,12.86379 31.35464,14.53884 12.57911,2.37254 75.31672,1.88178 88.74078,-0.69417 21.95037,-4.21206 46.53177,-11.30363 66.80308,-19.27224 15.21268,-5.98008 26.77571,-7.16182 28.41678,-2.90417 0.53127,1.37833 0.17932,9.24244 -0.78213,17.47581 -2.55136,21.84884 -0.99075,55.69155 3.67007,79.58695 5.12511,26.2759 11.65118,40.89638 28.42762,63.6872 5.60614,7.61594 11.57657,15.74952 13.26763,18.07464 3.95719,5.44094 5.06911,4.23954 2.77161,-2.99467 z M 229.18744,460.64663 c 0,-2.78034 -9.11913,-16.15166 -12.09757,-17.73863 -9.11032,-4.85407 -25.34617,4.09151 -21.10848,11.63029 1.19,2.11699 3.27632,2.50267 11.69771,2.16246 8.14683,-0.32911 11.17326,0.18894 14.75298,2.52533 5.31655,3.46998 6.75536,3.77254 6.75536,1.42055 z M 529.88373,340.24859 c 12.56569,-2.39814 13.60573,-2.87711 15.38258,-7.08426 2.25626,-5.34228 1.48476,-7.24164 -2.43797,-6.00212 -4.07889,1.28884 -11.90114,-3.70479 -11.90114,-7.59757 0,-1.75036 1.35107,-4.39976 3.00238,-5.88756 4.1325,-3.72329 3.75944,-6.49863 -1.12589,-8.37582 -2.27056,-0.87247 -6.67699,-2.90462 -9.79209,-4.51589 -5.48049,-2.83476 -5.81176,-2.84284 -10.23462,-0.24983 l -4.5708,2.67975 -4.20616,-5.12334 c -4.15945,-5.0664 -4.22562,-5.08716 -5.95603,-1.86817 -0.96243,1.79034 -2.48604,3.25515 -3.38582,3.25515 -2.80412,0 -19.27511,7.81278 -19.27511,9.14287 0,0.69409 1.66113,1.67704 3.69141,2.18435 2.03027,0.50731 4.50976,1.90406 5.50997,3.10391 1.0002,1.19983 4.06783,3.11717 6.81694,4.26073 4.49745,1.87082 4.99838,2.68596 4.99838,8.13362 0,5.33344 0.41403,6.05444 3.47676,6.05444 2.08662,0 5.3367,2.09152 8.12847,5.23089 2.55842,2.87699 5.49547,5.2309 6.52678,5.2309 1.0313,0 7.93969,-1.15742 15.35196,-2.57205 z m -28.98039,-0.63736 c 0,-0.72693 -1.87706,-1.1793 -4.17124,-1.00528 -6.25732,0.47469 -8.10371,-1.35472 -7.57173,-7.50204 0.41333,-4.77638 -0.0757,-5.69383 -4.02632,-7.55386 -2.47325,-1.16444 -4.73342,-2.7194 -5.0226,-3.45546 -0.28918,-0.73604 -3.16021,-2.99395 -6.38007,-5.01755 -4.68343,-2.94342 -5.85428,-4.5763 -5.85428,-8.16442 0,-2.46685 0.81452,-5.78362 1.81003,-7.37065 1.54901,-2.46937 1.2409,-3.33118 -2.13653,-5.9761 -2.1706,-1.69983 -4.38987,-5.10005 -4.9317,-7.55603 -1.13891,-5.16248 -0.97265,-5.12433 -9.47815,-2.17499 -7.84557,2.7205 -9.28274,2.02168 -9.28274,-4.51368 0,-10.54457 -9.40461,-13.29438 -10.2439,-2.9952 -0.49916,6.12534 -3.74389,11.19663 -7.16388,11.19663 -3.49889,0 -3.98504,3.16777 -1.25944,8.20648 2.52244,4.66314 2.53257,5.19401 0.16758,8.78746 -4.48636,6.81671 -3.30844,9.01241 9.11719,16.99503 14.45634,9.28721 22.69725,12.9045 36.70452,16.11119 6.0271,1.37979 11.63389,2.72066 12.45954,2.97974 3.32273,1.04259 17.26372,0.24211 17.26372,-0.99127 z m 69.91709,-2.1181 c 18.75666,-5.42854 18.91259,-20.09595 0.30246,-28.45075 -5.11747,-2.29744 -6.72547,-2.3988 -12.16275,-0.76667 -11.41345,3.42605 -14.52221,3.69798 -14.52221,1.27036 0,-2.89982 2.73668,-5.08507 8.02224,-6.40578 5.08302,-1.27011 12.35275,-10.68386 14.56394,-18.85925 1.75664,-6.49477 0.48962,-16.06816 -2.26593,-17.12087 -1.00018,-0.38211 -4.55086,2.0255 -7.89039,5.35022 -6.01484,5.98818 -10.92867,7.8381 -10.92867,4.11433 0,-1.06186 3.03992,-4.90087 6.75537,-8.53116 3.71545,-3.63029 6.75537,-7.49042 6.75537,-8.57806 0,-2.66901 -3.69334,-3.90477 -8.25992,-2.7637 -2.83565,0.70855 -3.76126,1.9318 -3.79736,5.01843 -0.0263,2.24483 -1.03958,5.38701 -2.25179,6.98262 -1.21223,1.5956 -2.20405,5.35388 -2.20405,8.3517 l 0,5.45063 -8.52028,1.3628 c -4.68615,0.74954 -8.77133,2.13079 -9.07816,3.06944 -0.30684,0.93865 3.08777,5.64645 7.5436,10.46179 9.61714,10.39309 10.29398,11.95529 7.53573,17.39267 -2.50999,4.94798 -1.36682,7.53579 2.75379,6.23375 1.64142,-0.51866 4.67005,-0.52181 6.7303,-0.007 3.58372,0.89547 3.70212,1.28495 2.73444,8.99566 l -1.01146,8.05965 5.03847,0.61464 c 2.77117,0.33804 5.27227,0.72225 5.55803,0.8538 0.28575,0.13152 4.1554,-0.8131 8.59923,-2.09923 z M 418.0585,303.85232 c 1.62384,-2.58867 1.52963,-4.17998 -0.57182,-9.65816 -2.97274,-7.74951 -2.09593,-11.15518 2.87192,-11.15518 5.02293,0 6.7425,-2.64062 7.8547,-12.06191 0.79751,-6.75551 0.46432,-8.73766 -1.97235,-11.7335 -4.22834,-5.19863 -7.90321,-3.29785 -7.90321,4.08783 0,6.40363 -4.26413,11.72511 -8.19273,10.22425 -1.26489,-0.48323 -3.41161,-3.64497 -4.77048,-7.02608 -2.08439,-5.18632 -2.9658,-5.9893 -5.63738,-5.13582 -4.2709,1.36443 -7.15745,1.37298 -10.29737,0.0305 -4.16167,-1.77931 -3.28008,2.51154 3.30775,16.09925 5.91814,12.20644 18.63746,29.42813 21.73456,29.42813 0.89773,0 2.50711,-1.39469 3.57641,-3.09932 z m 67.78911,-8.08719 c 2.37088,-1.22059 5.76101,-4.24704 7.53364,-6.72544 4.1747,-5.83685 6.33157,-5.68008 11.74098,0.8534 l 4.43747,5.35958 4.82432,-2.48371 c 3.47002,-1.78645 4.6194,-3.26388 4.09433,-5.26289 -1.07992,-4.11127 2.99752,-8.93476 7.65509,-9.05577 2.22374,-0.0577 5.30023,-0.59713 6.83664,-1.19856 2.842,-1.11252 6.90064,-10.42334 6.94167,-15.9247 0.012,-1.66661 1.11409,-4.58159 2.44813,-6.47775 1.68132,-2.3898 1.94584,-3.92513 0.86215,-5.00402 -1.92416,-1.91563 -22.9402,-2.0289 -36.85041,-0.19861 -7.56771,0.99575 -10.94738,0.87378 -12.76014,-0.46047 -4.10836,-3.02389 0.0649,-5.33339 11.52731,-6.37939 9.75841,-0.89051 15.28006,-3.1774 15.28006,-6.32852 0,-3.01749 -4.83752,-2.96787 -8.09957,0.0831 -4.28559,4.00826 -7.3225,2.98194 -11.36613,-3.84112 -3.72474,-6.285 -6.64033,-5.83791 -7.2645,1.11395 -0.66698,7.42867 -3.66698,9.05044 -14.66638,7.92852 -8.30577,-0.84718 -9.61852,-0.59625 -12.64528,2.4171 -2.88851,2.87571 -3.25192,4.41717 -2.51057,10.649 l 0.86684,7.28658 -6.56187,0 c -10.35425,0 -11.44218,0.84036 -10.36098,8.00339 1.28079,8.48518 2.5071,9.29632 7.97263,5.27337 5.85696,-4.31105 9.21732,-2.72981 11.10736,5.22662 0.84577,3.56042 3.10302,6.8642 6.40078,9.36838 2.80184,2.12762 5.09427,4.79738 5.09427,5.93281 0,2.6545 2.08954,2.61114 7.46216,-0.15483 z m -42.33798,-35.14428 c 1.29861,-2.07018 3.50081,-2.98908 7.16359,-2.98908 2.9463,0 5.52419,-0.82739 5.8206,-1.86818 0.29262,-1.02749 1.32152,-4.75865 2.28644,-8.29144 2.39987,-8.78643 8.4245,-12.4458 19.60519,-11.90821 l 8.25656,0.39698 -0.23911,-5.01985 c -0.16063,-3.3722 -1.76203,-6.58416 -4.87888,-9.78568 -2.55188,-2.6212 -4.63976,-6.24787 -4.63976,-8.05927 0,-2.59428 -2.12128,-4.29126 -9.9925,-7.99376 -10.86718,-5.11174 -14.07838,-4.72935 -15.04263,1.79128 -0.29767,2.01304 -1.54192,4.40676 -2.76498,5.31937 -2.97094,2.21684 -2.80959,3.50537 0.93592,7.47462 3.86404,4.09487 2.63586,6.55877 -3.26932,6.55877 -8.72732,0 -20.34837,11.29437 -17.0643,16.58457 0.62127,1.00077 1.03913,4.21475 0.92858,7.14219 -0.14742,3.90426 0.86505,6.43038 3.79948,9.47969 4.75241,4.93849 6.5825,5.17351 9.09512,1.168 z m -31.19279,-5.18867 c 0.80314,-2.10306 3.69671,-4.64504 6.71822,-5.9019 2.9191,-1.21429 5.30745,-2.45857 5.30745,-2.76507 0,-0.30651 -1.09506,-3.7569 -2.43348,-7.66752 -1.48602,-4.34188 -2.11761,-9.45478 -1.6222,-13.13197 0.71512,-5.30803 0.0695,-7.06381 -5.44779,-14.814 -4.15245,-5.83304 -8.42017,-9.85414 -12.68008,-11.94726 -6.15333,-3.02349 -10.84269,-9.07131 -10.84269,-13.98374 0,-1.56258 -1.42516,-2.31603 -4.3808,-2.31603 -2.40944,0 -5.4026,-0.39036 -6.65147,-0.86747 -7.22072,-2.75858 -7.23707,49.3547 -0.0206,65.5104 3.08941,6.91627 11.47027,10.01821 18.84769,6.97592 3.92122,-1.61702 4.79898,-1.45791 7.65775,1.38821 3.99586,3.97815 3.84044,3.99159 5.54794,-0.47957 z m 219.03292,-21.33892 c 4.27454,-5.1372 12.13846,-12.824 17.47535,-17.08177 5.33691,-4.25778 9.70347,-8.51637 9.70347,-9.46354 0,-0.94717 -9.96416,-11.14109 -22.14259,-22.65315 -26.63731,-25.17982 -32.56482,-30.3864 -34.59385,-30.3864 -0.85059,0 -4.62424,4.29391 -8.38587,9.54201 -3.76164,5.24811 -10.31984,13.33337 -14.57379,17.96724 l -7.73446,8.42523 11.48036,11.2456 c 6.31419,6.18507 15.12372,16.15031 19.57672,22.145 7.50861,10.10815 18.37853,20.66634 20.50852,19.92035 0.50282,-0.17612 4.4116,-4.52336 8.68614,-9.66057 z M 604.48564,220.1451 c 0,-1.71172 -2.13427,-7.93275 -4.74285,-13.82451 -2.60856,-5.89175 -5.05003,-13.81499 -5.42546,-17.60718 -0.58902,-5.94955 -0.20169,-7.23023 2.82508,-9.34089 5.49453,-3.83145 15.12563,-3.18929 19.35278,1.29036 2.31422,2.45247 5.15134,3.73635 8.25656,3.73635 5.02787,0 10.16842,4.26961 11.86329,9.85332 1.31921,4.3461 -3.36944,9.80814 -13.12416,15.28897 -4.41637,2.4814 -9.78009,6.58257 -11.9194,9.11371 -4.52393,5.35258 -7.08584,5.89125 -7.08584,1.48987 z m 15.76253,-13.00816 c 3.30262,-1.65978 7.63621,-4.75794 9.63018,-6.88479 3.11253,-3.31996 3.38522,-4.39186 1.92755,-7.57692 -0.93384,-2.04045 -3.34606,-4.12174 -5.36051,-4.6251 -4.28755,-1.07135 -10.88135,2.66836 -12.24461,6.9446 -0.50066,1.57046 -1.95037,2.85538 -3.22155,2.85538 -1.61785,0 -1.98247,-0.78465 -1.21536,-2.61545 4.57755,-10.92498 4.58629,-10.99866 1.56513,-13.198 -4.06843,-2.96171 -7.81781,-2.64545 -11.44474,0.9654 -2.37805,2.36752 -2.86677,4.14444 -2.09812,7.62856 1.36497,6.18713 6.56021,17.8494 9.37994,21.0561 1.98988,2.26295 2.64119,2.33896 4.69389,0.54777 1.31088,-1.14388 5.08557,-3.43778 8.3882,-5.09755 z m -104.3329,20.3396 c 2.06414,0.0719 5.10372,0.32884 6.75465,0.57114 4.13134,0.60633 4.62498,-4.36535 1.40654,-14.16615 -5.21635,-15.88488 -16.07671,-25.95023 -33.30869,-30.8704 -5.65818,-1.61555 -6.95468,-0.31773 -4.94355,4.94849 1.55626,4.07517 -0.11784,6.78967 -6.17918,10.01921 -2.69803,1.43754 -2.77671,1.86237 -0.75947,4.1002 1.23773,1.37308 3.39573,5.35979 4.79556,8.85936 2.2644,5.66095 3.0392,6.32536 7.02383,6.02308 3.58447,-0.27192 5.57417,0.89823 9.96561,5.8608 4.04864,4.57516 6.27396,5.98075 8.48933,5.3621 1.65131,-0.46114 4.69123,-0.77966 6.75537,-0.70783 z m -81.63191,-5.71377 c 3.9612,0 4.91843,-3.64862 1.31809,-5.02409 -3.27627,-1.25165 -2.76666,-5.4377 0.662,-5.4377 9.29599,0 3.07257,-8.87541 -12.01128,-17.12966 -9.79461,-5.35985 -11.22475,-6.68155 -11.62497,-10.74354 -0.50433,-5.11852 2.77321,-9.49034 7.1149,-9.49034 3.22946,0 5.18772,-10.38108 3.2657,-17.312 -0.99765,-3.59762 -1.93611,-4.30536 -5.3737,-4.0526 -5.88667,0.43285 -6.54818,1.7335 -2.4477,4.8128 l 3.55917,2.67279 -3.41915,4.60414 c -1.88053,2.5323 -5.34997,5.40039 -7.70987,6.37357 -2.35991,0.97317 -4.29074,2.82141 -4.29074,4.10721 0,1.28578 -1.46255,3.88772 -3.25011,5.78206 -2.74669,2.91076 -2.98852,4.01588 -1.56124,7.13453 0.92889,2.02964 4.40013,5.06731 7.71388,6.75036 3.46861,1.76172 8.60976,6.54349 12.11693,11.26993 3.35058,4.51542 6.73324,8.20984 7.51706,8.20984 0.81051,0 1.08358,3.06167 0.63319,7.09907 -0.77065,6.90835 -0.72464,7.00874 1.71301,3.73635 1.37773,-1.84949 4.11141,-3.36272 6.07483,-3.36272 z m 11.51082,-23.91266 c 0.62577,-2.38236 2.04764,-2.98908 7.005,-2.98908 3.42092,0 8.23623,1.03809 10.7007,2.30685 4.16201,2.14274 4.78035,2.09453 8.69063,-0.67751 6.78818,-4.81219 7.93228,-6.79452 6.33517,-10.97667 -1.00936,-2.64307 -2.84401,-3.94002 -6.28467,-4.44275 -4.79948,-0.7013 -20.85295,0.64953 -31.73408,2.67027 -8.45775,1.5707 -8.91798,-2.17175 -1.21913,-9.91349 3.41113,-3.43011 6.00376,-6.40079 5.76143,-6.60152 -0.24234,-0.20072 -2.85526,-0.79875 -5.80648,-1.32897 -4.59049,-0.82471 -5.60971,-0.47542 -7.05328,2.41719 -0.92808,1.85965 -1.89254,4.72629 -2.14324,6.37029 -0.29015,1.90276 -2.24514,3.51363 -5.37925,4.43242 -6.71576,1.96874 -5.69421,5.13895 3.19833,9.92552 3.98108,2.14287 9.02381,5.67372 11.20609,7.84634 4.75814,4.73704 5.69574,4.87108 6.72278,0.96111 z m -62.41278,-24.9802 c -1.81478,-1.80672 -3.0167,-2.07812 -4.16045,-0.93943 -1.14378,1.13871 -0.87118,2.33529 0.9436,4.14202 1.81478,1.80674 3.01668,2.07813 4.16045,0.93943 1.14376,-1.1387 0.87116,-2.33529 -0.9436,-4.14202 z m 13.23253,-2.05799 c 0.54804,-1.71903 3.2957,-4.08196 6.10594,-5.25095 5.88865,-2.44954 6.2863,-3.62372 2.10713,-6.2221 -1.68973,-1.05058 -3.00238,-3.4853 -3.00238,-5.56889 0,-3.15069 1.02531,-3.9592 6.88322,-5.4277 6.87001,-1.72223 9.78099,-4.74306 7.12175,-7.39052 -0.7731,-0.76968 -5.33836,-2.41922 -10.14505,-3.66565 -8.15014,-2.11343 -8.87535,-2.08789 -10.7555,0.37895 -1.10886,1.45485 -2.03757,3.3911 -2.06384,4.30277 -0.0263,0.91165 -2.06579,5.61946 -4.5323,10.46179 -5.37892,10.56005 -5.44154,11.42418 -1.2379,17.08471 3.83438,5.16332 8.10113,5.74493 9.51893,1.29759 z m 60.09596,-17.01203 c 0.70302,-3.73083 0.039,-6.29775 -2.76629,-10.69396 -4.50636,-7.0619 -9.71467,-11.88252 -11.22068,-10.38542 -0.61419,0.61055 -1.45446,5.25818 -1.86729,10.32809 -0.63474,7.79514 -1.19054,9.21799 -3.60078,9.21799 -2.60398,0 -2.82317,-1.11741 -2.53766,-12.93655 l 0.31252,-12.93655 -8.4023,-3.12977 c -9.14839,-3.40769 -26.88435,-4.32768 -28.6484,-1.48603 -1.82902,2.94632 4.56594,9.42526 10.51842,10.65652 10.7808,2.22999 17.34627,8.28172 17.34627,15.98896 0,2.96946 8.12243,9.88588 12.64818,10.7702 1.53667,0.30026 6.05622,0.31414 10.04345,0.0308 6.86357,-0.48768 7.29874,-0.77644 8.17456,-5.42432 z m 21.83438,-68.070382 c 13.42606,-2.534922 13.63448,-3.03238 13.47374,-32.157661 -0.0763,-13.815931 -0.53104,-25.508417 -1.01062,-25.983307 -0.47959,-0.474891 -12.80435,-0.899699 -27.38836,-0.944012 -14.58402,-0.04439 -34.69644,-0.904407 -44.6943,-1.91131 -20.91313,-2.106227 -26.67912,-1.066759 -25.42456,4.583445 0.60851,2.740541 1.95062,28.966232 2.25359,44.036801 0.0396,1.969775 2.23684,4.935036 5.48383,7.400655 5.29837,4.023366 5.83581,4.108884 24.39438,3.881743 10.43715,-0.127783 23.36763,0.317067 28.73439,0.98846 14.19067,1.775306 15.3065,1.780163 24.17791,0.105216 z m -4.47034,-14.7496 c -2.63373,-2.27411 -4.33944,-2.583046 -8.76958,-1.58831 -13.13483,2.949254 -19.24724,-2.364499 -18.13125,-15.762227 l 0.68151,-8.181748 -5.37598,-0.898144 c -2.9568,-0.493991 -6.38929,-1.160347 -7.62777,-1.480807 -5.00472,-1.294975 -6.49916,1.651932 -5.4301,10.707688 0.56259,4.765525 1.30468,8.945144 1.64912,9.288037 0.34443,0.342908 2.856,1.07749 5.58128,1.632398 5.70599,1.161827 6.03537,3.921034 0.45149,3.782057 -2.06414,-0.05141 -9.49505,-0.219518 -16.51312,-0.373635 -10.0359,-0.2204 -12.76014,-0.744387 -12.76014,-2.454321 0,-2.034101 3.32172,-3.053991 13.51073,-4.14828 3.49921,-0.375802 3.75298,-0.958913 3.75298,-8.623041 l 0,-8.219978 -7.95997,0.211477 c -6.55185,0.174084 -7.87824,-0.210954 -7.49802,-2.176545 1.04369,-5.395475 28.70875,-6.227352 36.56948,-1.099624 3.76871,2.458416 4.08598,2.441961 7.17827,-0.372545 4.95399,-4.508942 9.09625,-5.159008 15.00344,-2.354545 6.61247,3.139299 9.09813,8.762048 8.16187,18.462774 -0.61382,6.359842 -0.21662,7.871391 2.81305,10.705012 1.9403,1.814732 3.52781,3.854826 3.52781,4.533527 0,2.262871 -5.50279,1.270809 -8.8151,-1.58922 z m -7.02668,-7.510894 c 0.46671,-0.751784 -1.52003,-2.82428 -4.41497,-4.605519 -5.30788,-3.265917 -6.85044,-5.988643 -3.38704,-5.978331 1.03207,0.003 4.00816,1.299624 6.61351,2.881222 5.43256,3.297886 6.52193,2.774094 6.52193,-3.135906 0,-7.263846 -8.91252,-12.917652 -14.29601,-9.068908 -5.69264,4.069786 -8.64705,15.76961 -4.91926,19.480885 2.10778,2.098441 12.643,2.422174 13.88184,0.426557 z"
       id="path3347"
       inkscape:connector-curvature="0" />
    <path
       style="color:#000000;clip-rule:nonzero;display:inline;overflow:visible;visibility:visible;opacity:1;isolation:auto;mix-blend-mode:normal;color-interpolation:sRGB;color-interpolation-filters:linearRGB;solid-color:#000000;solid-opacity:1;fill:#ffaaaa;fill-opacity:1;fill-rule:evenodd;stroke:none;stroke-width:0.99999988px;stroke-linecap:round;stroke-linejoin:round;stroke-miterlimit:4;stroke-dasharray:none;stroke-dashoffset:0;stroke-opacity:1;color-rendering:auto;image-rendering:auto;shape-rendering:auto;text-rendering:auto;enable-background:accumulate"
       d="m 450.90809,211.52963 c -1.41759,0.0714 -1.98864,1.75253 -2.28237,2.91225 -0.79102,2.96267 -0.38835,6.55976 -2.73507,8.88811 -2.36998,2.16463 -5.81819,1.84721 -8.80617,1.79731 -4.09495,-0.112 -8.24654,-0.96881 -12.33571,-0.30072 -2.54236,0.89704 -4.50613,2.99456 -5.91518,5.22426 -1.61581,3.03969 -0.52605,6.58079 -0.34018,9.80928 0.21255,1.80701 0.37384,3.62199 0.66802,5.41812 -4.67354,0.11863 -9.41299,-0.29845 -14.03716,0.54073 -1.62696,0.25585 -3.03759,1.56182 -3.11616,3.25914 -0.24511,3.26894 0.52667,6.53339 1.34906,9.67634 0.33912,1.35217 1.34587,2.95475 2.96421,2.6144 2.65506,-0.55067 4.5563,-2.75072 6.97266,-3.85394 1.67563,-0.92705 4.07677,-1.0408 5.38016,0.57966 2.45236,2.93931 2.41737,7.07862 4.40778,10.28973 2.17905,4.15026 6.7827,6.12957 9.30769,9.98999 0.5606,1.05851 0.39328,2.83192 1.83873,3.17243 2.62392,0.0426 5.01135,-1.34778 7.24818,-2.56731 3.40059,-2.09957 6.01288,-5.21568 8.48075,-8.28439 1.00593,-1.08719 2.33384,-2.54531 4.00042,-2.01939 2.45447,0.74835 3.94137,3.08393 5.62953,4.85247 1.54649,1.75592 2.92793,3.67766 4.60589,5.30692 1.51975,-0.3163 2.867,-1.33808 4.27909,-1.99114 1.7937,-1.12935 4.35336,-1.93005 4.97559,-4.20864 0.21686,-1.98817 -0.46818,-4.17858 0.68603,-6.00028 1.38245,-2.52362 4.03129,-4.35461 6.94057,-4.45766 2.55447,-0.34963 5.33437,-0.39993 7.61614,-1.73723 2.29986,-2.24886 3.50352,-5.36276 4.68029,-8.29559 1.14059,-2.73479 1.3662,-5.71177 1.79188,-8.5965 0.41384,-2.43642 1.80976,-4.50342 3.06586,-6.56711 0.73531,-1.27436 1.03611,-3.37125 -0.51389,-4.17299 -2.57863,-1.0129 -5.44166,-0.91838 -8.16613,-1.14407 -10.76303,-0.46663 -21.54805,0.22865 -32.22672,1.53553 -2.81516,0.15147 -5.92131,0.72226 -8.52561,-0.66629 -0.70985,-0.53947 -1.80908,-1.27244 -1.62737,-2.28725 1.02814,-1.83507 3.42611,-2.12052 5.25562,-2.61273 6.54873,-1.45165 13.57656,-1.00273 19.77243,-3.8849 1.75732,-0.78457 3.78654,-2.54467 3.07881,-4.68331 -0.45309,-1.66955 -2.50379,-1.61771 -3.87904,-1.53146 -3.10951,0.26424 -4.97547,3.22124 -7.73403,4.29722 -2.27029,0.82719 -4.29246,-1.03089 -5.56885,-2.69636 -1.98483,-2.40877 -3.19425,-5.5666 -5.85031,-7.35909 -0.42069,-0.17257 -0.88112,-0.2544 -1.33544,-0.24554 z"
       id="path3372"
       inkscape:connector-curvature="0"
       transform="translate(45.274504,16.562186)" />
    <path
       style="color:#000000;clip-rule:nonzero;display:inline;overflow:visible;visibility:visible;opacity:1;isolation:auto;mix-blend-mode:normal;color-interpolation:sRGB;color-interpolation-filters:linearRGB;solid-color:#000000;solid-opacity:1;fill:#ffaaaa;fill-opacity:1;fill-rule:evenodd;stroke:none;stroke-width:0.99999988px;stroke-linecap:round;stroke-linejoin:round;stroke-miterlimit:4;stroke-dasharray:none;stroke-dashoffset:0;stroke-opacity:1;color-rendering:auto;image-rendering:auto;shape-rendering:auto;text-rendering:auto;enable-background:accumulate"
       d="m 508.78511,239.5486 c -2.09801,0.12952 -4.59657,0.34607 -6.01807,2.09508 -1.34611,2.18482 -0.66534,4.94647 -1.67376,7.26562 -1.02076,2.71424 -2.91207,5.12434 -3.35065,8.07408 -0.43913,2.89341 -0.28297,5.83855 -0.43039,8.75419 -4.67711,0.87774 -9.45943,1.33317 -14.03425,2.68206 -1.19406,0.52153 -2.87524,0.73302 -3.4926,2.02148 0.19426,1.76175 1.56392,3.13887 2.51011,4.56404 3.86658,5.22966 8.83684,9.63103 12.53453,14.92676 1.20863,1.71619 1.89851,4.00557 0.97691,5.99888 -0.82869,2.46902 -2.62195,4.88946 -2.13169,7.61021 0.32601,1.40966 1.93375,1.84021 3.17661,1.47322 3.17967,-0.78139 6.74884,-0.89164 9.74889,0.55524 1.27152,0.68796 0.77217,2.40731 0.8447,3.58799 -0.16933,4.11912 -1.00877,8.19057 -1.27404,12.29057 0.56447,0.74206 1.77552,0.44628 2.58444,0.69912 2.77567,0.3034 5.53469,0.74605 8.29412,1.1403 2.9819,-0.40065 5.86898,-1.37205 8.76935,-2.15791 5.15101,-1.51855 10.50794,-4.17961 13.14785,-9.09941 1.52696,-3.14992 1.19929,-7.06784 -0.66889,-10.00974 -2.79759,-4.81964 -7.86331,-7.69405 -12.7564,-9.99584 -2.74573,-1.24802 -5.84741,-2.21719 -8.85817,-1.36338 -5.10749,1.09188 -10.01767,3.2503 -15.27155,3.5257 -0.84271,0.1772 -2.03748,-0.16092 -1.93578,-1.21436 0.0677,-2.76047 2.79631,-4.33937 5.07258,-5.22924 2.39265,-0.83473 4.97294,-1.45485 6.88647,-3.24941 4.6282,-3.99943 7.96801,-9.37787 10.07356,-15.08628 1.62618,-4.71719 1.53963,-9.88377 0.62232,-14.73653 -0.42381,-1.61841 -1.00393,-3.63589 -2.66993,-4.35897 -2.06203,0.0651 -3.6217,1.72804 -5.18874,2.87834 -3.60814,2.85909 -6.62689,6.72205 -11.06545,8.32562 -0.84998,0.3968 -2.20348,0.12268 -2.18924,-1.01563 0.11667,-1.74257 1.5726,-3.01777 2.55162,-4.345 3.24236,-3.93249 7.28553,-7.20688 10.1259,-11.47322 0.8448,-1.15367 1.02433,-2.94619 -0.23507,-3.88602 -1.23496,-1.11759 -3.0954,-1.22927 -4.67529,-1.24756 z"
       id="path3374"
       inkscape:connector-curvature="0"
       transform="translate(45.274504,16.562186)" />
    <path
       style="color:#000000;clip-rule:nonzero;display:inline;overflow:visible;visibility:visible;opacity:1;isolation:auto;mix-blend-mode:normal;color-interpolation:sRGB;color-interpolation-filters:linearRGB;solid-color:#000000;solid-opacity:1;fill:#ffaaaa;fill-opacity:1;fill-rule:evenodd;stroke:none;stroke-width:0.99999988px;stroke-linecap:round;stroke-linejoin:round;stroke-miterlimit:4;stroke-dasharray:none;stroke-dashoffset:0;stroke-opacity:1;color-rendering:auto;image-rendering:auto;shape-rendering:auto;text-rendering:auto;enable-background:accumulate"
       d="m 454.47742,277.24531 c -1.22815,0.17245 -1.50067,1.73606 -2.18436,2.55406 -0.8311,1.18106 -1.69112,2.67984 -3.28299,2.85122 -5.39457,1.40416 -10.37826,4.0248 -15.31215,6.55692 -1.23834,0.8133 -2.86242,1.30451 -3.71164,2.57533 -0.28968,1.2572 1.30382,1.80687 2.20947,2.21645 2.43583,0.79706 4.9403,1.61538 6.79945,3.45888 2.71055,2.72042 6.39741,4.02465 9.71527,5.75952 2.18749,1.28183 2.06267,4.13558 2.08392,6.33545 0.14107,1.86697 -0.0951,3.94167 0.84577,5.63093 1.09826,1.21437 2.98983,0.61514 4.37629,1.24298 4.25326,1.58554 6.76778,5.63706 10.21833,8.37544 1.20316,0.95285 2.63599,2.18893 4.28818,1.6262 7.62431,-1.23683 15.25408,-2.52392 22.7751,-4.29346 2.55359,-0.61075 5.36806,-1.70821 6.4607,-4.31586 0.97235,-2.10188 2.03596,-4.47335 1.56018,-6.83382 -0.61287,-1.44438 -2.54043,-1.0148 -3.72872,-0.72405 -3.42345,0.73742 -6.71444,-1.10343 -9.25149,-3.25171 -1.43889,-1.28275 -2.84164,-3.21825 -2.15232,-5.26043 0.73289,-2.94061 3.38484,-4.70256 4.9571,-7.13309 1.08254,-1.64811 0.58299,-4.15731 -1.28697,-5.0007 -3.61785,-1.9085 -7.46591,-3.35158 -11.10609,-5.22396 -2.24548,-0.94269 -4.39561,-2.4897 -6.89545,-2.59308 -2.58343,0.34426 -4.64941,2.17294 -6.91023,3.32072 -0.92526,0.39987 -2.02996,1.81292 -2.61847,0.31157 -2.29964,-2.61696 -4.26702,-5.5745 -6.89638,-7.87929 -0.2762,-0.19634 -0.60676,-0.33989 -0.9525,-0.30622 z"
       id="path3376"
       inkscape:connector-curvature="0"
       transform="translate(45.274504,16.562186)" />
    <path
       style="color:#000000;clip-rule:nonzero;display:inline;overflow:visible;visibility:visible;opacity:1;isolation:auto;mix-blend-mode:normal;color-interpolation:sRGB;color-interpolation-filters:linearRGB;solid-color:#000000;solid-opacity:1;fill:#ffaaaa;fill-opacity:1;fill-rule:evenodd;stroke:none;stroke-width:0.99999988px;stroke-linecap:round;stroke-linejoin:round;stroke-miterlimit:4;stroke-dasharray:none;stroke-dashoffset:0;stroke-opacity:1;color-rendering:auto;image-rendering:auto;shape-rendering:auto;text-rendering:auto;enable-background:accumulate"
       d="m 392.54906,253.04435 c -2.49729,0.16072 -3.8737,2.75028 -4.2184,4.96966 -0.58036,3.9949 -1.21321,8.37951 -4.27072,11.31173 -1.17374,1.31132 -3.00882,1.19173 -4.54171,1.70305 -1.88025,0.68321 -1.76377,3.06936 -1.33719,4.6603 0.73774,2.68872 2.48587,4.98519 3.20068,7.66776 0.33079,1.60369 -0.6159,2.97803 -1.45447,4.24314 -1.27635,2.27834 -3.19535,4.89321 -2.25751,7.63535 1.15353,3.02565 4.09192,4.82286 6.5403,6.71926 6.92721,4.75693 14.10398,9.21024 21.69571,12.83313 10.37696,4.94187 21.80639,6.81879 32.85767,9.63171 4.18616,0.67728 8.46698,0.30364 12.67096,-0.0271 1.40069,-0.2698 3.05329,-0.12267 4.25468,-0.98458 0.57229,-0.87865 -0.79661,-1.49087 -1.49868,-1.50077 -2.4601,-0.3391 -5.03228,0.21993 -7.42885,-0.52071 -1.68888,-0.47485 -2.52116,-2.21116 -2.55371,-3.84766 -0.32487,-2.52492 0.36879,-5.13353 -0.27204,-7.613 -1.03956,-2.2936 -3.78852,-2.8834 -5.71806,-4.18183 -1.4575,-0.80317 -2.79559,-1.81541 -3.80901,-3.15216 -3.14688,-3.07705 -7.42467,-4.81067 -10.34912,-8.11209 -1.46529,-1.71176 -0.8956,-4.10758 -0.92145,-6.15827 0.0429,-2.4435 1.2772,-4.56139 2.26109,-6.75747 0.72043,-1.6867 -0.90926,-3.1125 -2.07426,-4.07215 -2.96531,-2.40233 -5.31266,-5.62093 -5.99462,-9.40214 -0.30536,-1.31769 -0.8609,-3.26517 -2.57914,-3.10216 -2.9823,0.40677 -5.77003,1.6993 -8.65873,2.5026 -1.80403,0.43092 -3.73864,1.40333 -5.58688,0.70157 -1.78169,-1.03302 -1.41502,-3.40363 -1.62632,-5.13567 -0.11342,-3.36215 -0.75673,-7.30444 -3.79918,-9.28955 -0.75058,-0.47484 -1.63605,-0.76926 -2.53104,-0.72196 z"
       id="path3378"
       inkscape:connector-curvature="0"
       transform="translate(45.274504,16.562186)" />
    <path
       style="color:#000000;clip-rule:nonzero;display:inline;overflow:visible;visibility:visible;opacity:1;isolation:auto;mix-blend-mode:normal;color-interpolation:sRGB;color-interpolation-filters:linearRGB;solid-color:#000000;solid-opacity:1;fill:#ffaaaa;fill-opacity:1;fill-rule:evenodd;stroke:none;stroke-width:0.99999988px;stroke-linecap:round;stroke-linejoin:round;stroke-miterlimit:4;stroke-dasharray:none;stroke-dashoffset:0;stroke-opacity:1;color-rendering:auto;image-rendering:auto;shape-rendering:auto;text-rendering:auto;enable-background:accumulate"
       d="m 410.79473,184.78542 c -1.81437,-0.0703 -3.39917,1.25101 -3.848,2.97677 -0.83622,2.62576 -1.06959,5.65336 -3.27253,7.58894 -1.16303,0.88028 -2.61555,2.14734 -2.0588,3.78802 0.9668,3.04191 4.27482,4.69883 5.06452,7.83377 -0.0277,1.59761 -2.00438,2.12592 -3.29555,2.31027 -2.25369,0.12595 -4.56507,0.16143 -6.68039,1.06864 -5.32513,2.07721 -10.18704,5.96812 -12.60184,11.23465 -0.655,1.69439 -0.62074,3.69965 0.21659,5.3125 1.21767,3.57085 0.27284,7.44032 1.28313,11.0383 1.19891,3.51473 4.1164,6.07088 6.9193,8.33879 1.29988,1.01168 3.41426,1.21276 4.50265,-0.22879 1.4056,-1.39415 2.24194,-3.52836 4.33594,-4.07262 3.05617,-1.02893 6.6107,-0.11728 9.44161,-1.85651 0.94181,-0.84375 0.91335,-2.304 1.39616,-3.41023 1.4189,-4.58574 2.17337,-9.79416 5.8046,-13.26597 3.89062,-3.78858 9.62708,-4.37524 14.81061,-4.12458 2.88743,0.0444 5.77713,0.29418 8.66176,0.25879 0.41356,-0.76385 0.002,-1.81354 0.0718,-2.67166 -0.14917,-2.6965 -0.26457,-5.50512 -1.65276,-7.90661 -2.11915,-3.9472 -6.04411,-6.68852 -7.65199,-10.95508 -0.4732,-1.25519 -0.20772,-2.72697 -1.10987,-3.83426 -1.61267,-2.27657 -4.37555,-3.31168 -6.7263,-4.63673 -4.01869,-1.89747 -8.05448,-4.07647 -12.50152,-4.74141 -0.36818,-0.0389 -0.7389,-0.0582 -1.1091,-0.045 z"
       id="path3380"
       inkscape:connector-curvature="0"
       transform="translate(45.274504,16.562186)" />
    <path
       style="color:#000000;clip-rule:nonzero;display:inline;overflow:visible;visibility:visible;opacity:1;isolation:auto;mix-blend-mode:normal;color-interpolation:sRGB;color-interpolation-filters:linearRGB;solid-color:#000000;solid-opacity:1;fill:#ffaaaa;fill-opacity:1;fill-rule:evenodd;stroke:none;stroke-width:0.99999988px;stroke-linecap:round;stroke-linejoin:round;stroke-miterlimit:4;stroke-dasharray:none;stroke-dashoffset:0;stroke-opacity:1;color-rendering:auto;image-rendering:auto;shape-rendering:auto;text-rendering:auto;enable-background:accumulate"
       d="m 441.66422,165.54609 c -1.20217,-0.0942 -2.40848,0.85471 -2.22795,2.13554 -0.0863,2.7098 2.03208,5.22928 1.05224,7.92341 -1.3169,3.08867 -4.64529,4.47186 -7.2936,6.18528 -0.74509,0.36472 -1.63357,1.13891 -1.13274,2.04714 0.98605,1.72234 2.44648,3.15062 3.31822,4.94385 1.97006,3.27787 2.98077,7.03751 4.99024,10.28494 1.21438,1.91771 3.73479,1.56707 5.67511,1.6217 2.00205,-0.12872 3.88752,0.692 5.32552,2.0303 3.11103,2.67115 5.51709,6.13538 8.90834,8.479 1.16928,0.69337 2.55634,1.13253 3.89053,0.65046 4.65027,-1.06093 9.45361,-0.39775 14.16332,-0.10219 1.92888,0.0115 2.8008,-2.09732 2.79611,-3.74895 0.0944,-4.8077 -1.58806,-9.44054 -3.20107,-13.89955 -4.06833,-10.9061 -12.75045,-19.95742 -23.41131,-24.60282 -4.03015,-1.75134 -8.18469,-3.55472 -12.60533,-3.9495 -0.0825,-4e-4 -0.16511,-0.002 -0.24763,0.001 z"
       id="path3382"
       inkscape:connector-curvature="0"
       transform="translate(45.274504,16.562186)" />
    <path
       style="color:#000000;clip-rule:nonzero;display:inline;overflow:visible;visibility:visible;opacity:1;isolation:auto;mix-blend-mode:normal;color-interpolation:sRGB;color-interpolation-filters:linearRGB;solid-color:#000000;solid-opacity:1;fill:#ffaaaa;fill-opacity:1;fill-rule:evenodd;stroke:none;stroke-width:0.99999988px;stroke-linecap:round;stroke-linejoin:round;stroke-miterlimit:4;stroke-dasharray:none;stroke-dashoffset:0;stroke-opacity:1;color-rendering:auto;image-rendering:auto;shape-rendering:auto;text-rendering:auto;enable-background:accumulate"
       d="m 390.48712,148.70876 c -1.65213,-0.0963 -3.01121,1.08766 -3.63212,2.53871 -1.32457,2.45002 -1.90271,5.21751 -2.74797,7.82541 -1.69689,2.75181 -5.23628,3.0092 -7.83971,4.47789 -1.35159,0.71208 -2.01696,2.53109 -1.02085,3.81313 1.95793,2.63135 5.06658,4.0491 7.79193,5.73163 4.51225,2.5236 8.69475,5.59063 12.39528,9.1986 1.07953,0.931 2.52468,2.49477 4.10443,1.75643 1.32666,-1.31507 1.02406,-3.82542 2.839,-4.75795 3.06441,-1.15396 6.46454,-0.70996 9.60469,-0.23135 2.94299,0.46684 5.69826,1.5677 8.37523,2.84609 1.39903,0.66738 3.05301,0.63465 4.35965,-0.23402 2.91363,-1.77965 5.80352,-3.75795 8.05908,-6.34906 1.48726,-1.62482 1.70182,-4.02552 0.89307,-6.01907 -0.69119,-2.60866 -3.0425,-4.43943 -5.63637,-4.91877 -3.3079,-0.48591 -6.68326,-0.19774 -10.01395,-0.12138 -8.1027,0.39204 -16.17072,1.43453 -24.15229,2.81298 -1.59105,0.0979 -3.70248,0.54043 -4.79058,-0.96414 -0.6968,-1.57311 0.67887,-3.12286 1.49603,-4.36111 2.78577,-3.7595 6.44471,-6.77073 9.23255,-10.5217 0.56382,-0.87311 -0.75476,-1.20098 -1.36614,-1.28522 -2.6232,-0.52678 -5.25935,-1.23236 -7.95096,-1.2371 z"
       id="path3384"
       inkscape:connector-curvature="0"
       transform="translate(45.274504,16.562186)" />
    <path
       style="color:#000000;clip-rule:nonzero;display:inline;overflow:visible;visibility:visible;opacity:1;isolation:auto;mix-blend-mode:normal;color-interpolation:sRGB;color-interpolation-filters:linearRGB;solid-color:#000000;solid-opacity:1;fill:#ffaaaa;fill-opacity:1;fill-rule:evenodd;stroke:none;stroke-width:0.99999988px;stroke-linecap:round;stroke-linejoin:round;stroke-miterlimit:4;stroke-dasharray:none;stroke-dashoffset:0;stroke-opacity:1;color-rendering:auto;image-rendering:auto;shape-rendering:auto;text-rendering:auto;enable-background:accumulate"
       d="m 376.37413,239.50133 c -1.90617,0.10801 -2.8699,2.11888 -3.21173,3.7602 -0.55811,3.04286 -0.13694,6.30679 -1.57885,9.15155 -0.9895,2.09055 -2.6888,4.2845 -5.15706,4.54273 -1.80304,0.1832 -2.94347,-1.49577 -3.82123,-2.80522 -1.83376,-2.63752 -2.60791,-5.83348 -4.34113,-8.52077 -0.68629,-1.14647 -2.14286,-1.63501 -3.39211,-1.18005 -2.87357,0.88882 -6.00342,1.59004 -8.96992,0.7275 -1.24726,-0.30036 -2.50973,-1.19076 -3.8268,-0.81088 -1.00708,0.619 -0.68501,2.02006 -0.50606,2.99026 1.11223,4.32314 3.15972,8.32997 5.0114,12.36967 3.95678,8.26862 8.99899,15.98591 14.56811,23.25196 2.03731,2.50279 4.01828,5.1451 6.63538,7.07753 0.72239,0.52062 1.7402,0.80265 2.51059,0.19508 1.78684,-1.21271 3.23096,-3.07964 3.73751,-5.19726 0.4361,-2.80711 -0.92467,-5.4785 -1.76706,-8.07414 -0.86122,-2.58622 -1.94462,-5.40312 -1.21013,-8.09915 0.49455,-1.36438 1.96214,-2.06529 3.33864,-2.07107 1.97848,-0.11055 4.23868,-0.25331 5.64126,-1.85955 1.88629,-2.18473 2.30255,-5.18129 2.80868,-7.92353 0.54747,-3.41866 0.87449,-6.91573 0.50786,-10.3697 -0.68153,-2.5709 -2.41096,-4.82459 -4.55333,-6.36721 -0.71633,-0.46983 -1.55122,-0.8304 -2.42402,-0.78795 z"
       id="path3386"
       inkscape:connector-curvature="0"
       transform="translate(45.274504,16.562186)" />
    <path
       style="color:#000000;clip-rule:nonzero;display:inline;overflow:visible;visibility:visible;opacity:1;isolation:auto;mix-blend-mode:normal;color-interpolation:sRGB;color-interpolation-filters:linearRGB;solid-color:#000000;solid-opacity:1;fill:#ffaaaa;fill-opacity:1;fill-rule:evenodd;stroke:none;stroke-width:0.99999988px;stroke-linecap:round;stroke-linejoin:round;stroke-miterlimit:4;stroke-dasharray:none;stroke-dashoffset:0;stroke-opacity:1;color-rendering:auto;image-rendering:auto;shape-rendering:auto;text-rendering:auto;enable-background:accumulate"
       d="m 334.3655,165.17341 c -1.51492,0.0964 -2.10956,1.77301 -2.60905,2.96131 -1.53025,4.51314 -1.83656,9.32579 -2.17465,14.04562 -0.57769,11.2987 -0.11307,22.66042 1.4411,33.86766 0.80243,5.09444 1.63048,10.28211 3.76185,15.01937 1.38561,3.13166 3.9445,5.7048 7.10899,7.03318 3.92136,1.84186 8.53588,1.53515 12.48405,-0.0559 1.46237,-0.51681 3.24448,-1.35705 4.70512,-0.34589 1.98923,1.34179 3.44333,3.34478 5.42242,4.69045 0.52695,0.39516 1.157,0.0782 1.42768,-0.44934 1.08663,-1.72293 1.44543,-3.87739 2.99935,-5.29832 2.13616,-2.3496 5.15665,-3.49428 7.972,-4.79975 0.79151,-0.46817 1.82048,-0.73896 2.36952,-1.50784 0.0102,-1.10726 -0.60237,-2.14453 -0.85123,-3.21471 -1.46876,-4.59835 -3.2557,-9.2205 -3.22572,-14.10112 -0.24017,-3.22964 0.85755,-6.5269 -0.17412,-9.69919 -1.07646,-3.16172 -3.13659,-5.86406 -5.01317,-8.58629 -3.53325,-4.8314 -7.56649,-9.58827 -13.00459,-12.32858 -4.49305,-2.3508 -8.54697,-6.08013 -10.18676,-10.97315 -0.52999,-1.28131 -0.29535,-2.77534 -0.91742,-4.03296 -0.90272,-1.25693 -2.68185,-1.15184 -4.05467,-1.30536 -2.35159,-0.093 -4.71419,-0.2696 -6.99807,-0.8935 -0.15977,-0.0219 -0.3214,-0.0324 -0.48263,-0.0257 z"
       id="path3388"
       inkscape:connector-curvature="0"
       transform="translate(45.274504,16.562186)" />
    <path
       style="color:#000000;clip-rule:nonzero;display:inline;overflow:visible;visibility:visible;opacity:1;isolation:auto;mix-blend-mode:normal;color-interpolation:sRGB;color-interpolation-filters:linearRGB;solid-color:#000000;solid-opacity:1;fill:#ffaaaa;fill-opacity:1;fill-rule:evenodd;stroke:none;stroke-width:0.99999988px;stroke-linecap:round;stroke-linejoin:round;stroke-miterlimit:4;stroke-dasharray:none;stroke-dashoffset:0;stroke-opacity:1;color-rendering:auto;image-rendering:auto;shape-rendering:auto;text-rendering:auto;enable-background:accumulate"
       d="m 373.02627,135.75223 c -1.8458,0.12504 -3.87128,0.0997 -5.48506,1.1231 -0.87381,0.68625 -0.34099,1.9481 0.36796,2.53796 1.54339,1.57863 3.53789,2.75349 5.13856,4.1802 -1.60391,2.1905 -3.20745,4.40227 -5.04232,6.40922 -1.98499,1.99548 -4.31318,3.62458 -6.87457,4.78014 -1.52164,0.88162 -3.22489,2.12118 -3.38842,4.02676 -0.71536,3.02589 -3.17431,5.13987 -4.93301,7.5641 -0.9714,1.47069 -0.72306,3.40093 0.0549,4.89804 1.10742,2.50146 3.40106,4.20925 5.56552,5.75665 2.28341,1.45669 4.69852,2.7121 6.74163,4.5131 3.82891,3.11764 6.85247,7.0608 9.86513,10.94318 1.59443,1.86403 3.08592,3.89879 5.09821,5.33595 1.02884,0.31823 0.85478,1.60687 1.00472,2.44276 0.21179,3.43831 -0.7258,6.85948 -0.51395,10.30153 0.27919,0.69558 1.07694,0.0544 1.33446,-0.32973 1.35678,-1.76377 2.85945,-3.59832 5.05706,-4.31582 1.70569,-0.7064 3.96436,-0.18685 5.26667,-1.75718 0.91808,-1.07076 0.57012,-2.77212 -0.59904,-3.50717 -1.07111,-0.81835 -2.73546,-1.10144 -3.11702,-2.59123 -0.55143,-1.341 0.49093,-2.88442 1.90784,-2.97571 1.59857,-0.25196 3.58353,-0.0717 4.73189,-1.43187 0.90482,-1.38663 0.0668,-3.14739 -0.76247,-4.35896 -2.801,-3.75118 -6.62814,-6.59925 -10.55097,-9.08542 -4.36278,-2.82506 -9.16998,-4.95113 -13.32498,-8.07828 -1.53685,-1.12734 -2.74174,-2.82624 -2.86148,-4.79813 -0.43692,-2.83775 0.35335,-5.95307 2.52994,-7.9472 1.12771,-1.17715 2.73889,-1.63633 4.31362,-1.80575 1.59285,-0.13621 2.33014,-1.77093 2.86353,-3.06029 1.39475,-3.86255 1.49327,-8.08678 1.04243,-12.13195 -0.32475,-2.01601 -0.70819,-4.20817 -2.09676,-5.78939 -0.87513,-0.85222 -2.1954,-0.85199 -3.33405,-0.84861 z"
       id="path3390"
       inkscape:connector-curvature="0"
       transform="translate(45.274504,16.562186)" />
    <path
       style="color:#000000;clip-rule:nonzero;display:inline;overflow:visible;visibility:visible;opacity:1;isolation:auto;mix-blend-mode:normal;color-interpolation:sRGB;color-interpolation-filters:linearRGB;solid-color:#000000;solid-opacity:1;fill:#ffaaaa;fill-opacity:1;fill-rule:evenodd;stroke:none;stroke-width:0.99999988px;stroke-linecap:round;stroke-linejoin:round;stroke-miterlimit:4;stroke-dasharray:none;stroke-dashoffset:0;stroke-opacity:1;color-rendering:auto;image-rendering:auto;shape-rendering:auto;text-rendering:auto;enable-background:accumulate"
       d="m 352.72433,118.94512 c -1.77039,-0.0794 -2.92434,1.52437 -3.85096,2.80382 -0.9988,1.38707 -1.42088,3.05064 -1.8494,4.67368 -2.14173,5.87651 -5.47323,11.22449 -7.78676,17.02758 -0.88645,2.19987 -0.91351,4.84932 0.45567,6.86305 1.68307,2.65022 3.59184,5.45985 6.54043,6.80508 1.50669,0.71271 3.46208,0.36785 4.4606,-1.02248 0.86227,-1.21939 1.16126,-2.82352 2.35712,-3.80147 1.75607,-1.82514 4.08599,-2.87757 6.36531,-3.89009 1.10206,-0.63091 2.53494,-1.13135 3.08546,-2.36705 0.31591,-1.12082 -0.68053,-1.92565 -1.45467,-2.53779 -1.4816,-1.04787 -3.07126,-2.17595 -3.71004,-3.96162 -0.59283,-1.43568 -0.68672,-3.16155 -0.0688,-4.60142 0.90638,-1.50575 2.80752,-1.84734 4.35061,-2.37716 3.18172,-0.96147 6.75036,-1.58428 9.20605,-4.01373 1.26755,-1.15885 1.264,-3.45463 -0.23281,-4.42238 -2.10351,-1.37286 -4.6052,-1.95869 -6.95999,-2.75493 -3.46856,-0.98738 -6.9555,-2.06754 -10.55713,-2.42358 -0.11689,-0.004 -0.23379,-1.7e-4 -0.35069,4.9e-4 z"
       id="path3392"
       inkscape:connector-curvature="0"
       transform="translate(45.274504,16.562186)" />
    <path
       style="color:#000000;clip-rule:nonzero;display:inline;overflow:visible;visibility:visible;opacity:1;isolation:auto;mix-blend-mode:normal;color-interpolation:sRGB;color-interpolation-filters:linearRGB;solid-color:#000000;solid-opacity:1;fill:#ffaaaa;fill-opacity:1;fill-rule:evenodd;stroke:none;stroke-width:0.99999988px;stroke-linecap:round;stroke-linejoin:round;stroke-miterlimit:4;stroke-dasharray:none;stroke-dashoffset:0;stroke-opacity:1;color-rendering:auto;image-rendering:auto;shape-rendering:auto;text-rendering:auto;enable-background:accumulate"
       d="m 335.2955,154.42821 c -1.44845,0.1441 -2.81945,1.82449 -2.09331,3.25686 0.74772,1.43826 2.00679,2.59357 3.36611,3.44823 1.45646,0.75933 3.38961,-0.44819 3.36487,-2.08566 0.0247,-1.3905 -1.14704,-2.42536 -2.06741,-3.31827 -0.73732,-0.59049 -1.57746,-1.29263 -2.57026,-1.30116 z"
       id="path3394"
       inkscape:connector-curvature="0"
       transform="translate(45.274504,16.562186)" />
    <path
       style="color:#000000;clip-rule:nonzero;display:inline;overflow:visible;visibility:visible;opacity:1;isolation:auto;mix-blend-mode:normal;color-interpolation:sRGB;color-interpolation-filters:linearRGB;solid-color:#000000;solid-opacity:1;fill:#ffaaaa;fill-opacity:1;fill-rule:evenodd;stroke:none;stroke-width:0.99999988px;stroke-linecap:round;stroke-linejoin:round;stroke-miterlimit:4;stroke-dasharray:none;stroke-dashoffset:0;stroke-opacity:1;color-rendering:auto;image-rendering:auto;shape-rendering:auto;text-rendering:auto;enable-background:accumulate"
       d="m 360.38161,103.3065 c -2.41255,0.0982 -5.00235,0.0118 -7.19586,1.16774 -1.29666,0.70054 -1.20158,2.43054 -0.66266,3.59719 0.95076,2.24295 2.89036,3.86745 4.7521,5.34893 2.11434,1.60527 4.65817,2.45691 7.21798,3.03988 5.10628,1.22005 10.23416,3.64954 13.37917,8.00472 1.57036,2.14662 2.3628,4.79078 2.47927,7.44247 0.16008,1.91617 1.69653,3.31331 2.90573,4.65885 2.68852,2.62741 5.77929,5.0419 9.40599,6.19191 1.91524,0.49019 3.92602,0.18665 5.88011,0.26002 3.44477,-0.10485 6.97965,0.0725 10.32574,-0.88915 1.78713,-0.4958 2.37893,-2.46862 2.68787,-4.08149 0.35474,-2.28674 0.63782,-4.72743 -0.25162,-6.93336 -1.67335,-4.2413 -4.46449,-7.943 -7.42829,-11.36543 -1.51797,-1.58277 -3.08807,-3.36493 -5.24562,-4.03782 -0.7136,-0.23813 -1.54092,0.12128 -1.70332,0.89117 -1.03544,3.22273 -1.23438,6.64145 -1.61971,9.98595 -0.31382,2.52542 -0.33082,5.15127 -1.22734,7.56236 -0.53699,1.44246 -2.75552,1.76009 -3.72913,0.63701 -0.77445,-1.30062 -0.56768,-2.93047 -0.69078,-4.37256 -0.11491,-6.88178 0.31265,-13.76092 0.29446,-20.6403 -0.44001,-0.52299 -1.30187,-0.56006 -1.89938,-0.88514 -3.61872,-1.28173 -7.18475,-2.75629 -10.90583,-3.72048 -5.48237,-1.3086 -11.13715,-1.87695 -16.76888,-1.86247 z"
       id="path3396"
       inkscape:connector-curvature="0"
       transform="translate(45.274504,16.562186)" />
  </g>
</svg>
